<?xml version="1.0" encoding="utf-8"?>
<!-- Generator: Adobe Illustrator 26.0.0, SVG Export Plug-In . SVG Version: 6.00 Build 0)  -->
<svg version="1.1" id="Layer_1" xmlns="http://www.w3.org/2000/svg" xmlns:xlink="http://www.w3.org/1999/xlink" x="0px" y="0px"
	 viewBox="0 0 25 25" style="enable-background:new 0 0 25 25;" xml:space="preserve">
<style type="text/css">
	.st0{fill:#426D61;}
</style>
<path class="st0" d="M12.2,0C5.3,0-0.3,5.6-0.3,12.5c0,6.9,5.6,12.5,12.5,12.5s12.5-5.6,12.5-12.5C24.7,5.6,19.1,0,12.2,0z
	 M19.5,17.7H4.9v-6.9l5.1,3.5c0.7,0.4,1.4,0.6,2.2,0.6c0.8,0,1.5-0.2,2.2-0.6l5.1-3.5V17.7L19.5,17.7z M19.5,8.8L13.5,13
	c-0.3,0.2-0.8,0.3-1.2,0.3c-0.5,0-0.9-0.1-1.2-0.3l-6-4.2V7.3h14.6V8.8L19.5,8.8z"/>
</svg>
