<svg id="Layer_1" data-name="Layer 1" xmlns="http://www.w3.org/2000/svg" viewBox="0 0 864 864"><defs><style>.cls-1{fill:#426d61;}.cls-2{fill:#fff;}</style></defs><circle class="cls-1" cx="432" cy="432" r="432"/><path class="cls-2" d="M937.71,570.73c6.5,6.6,14.2,10,22.4,10,8.5,0,16.5-3.8,23.2-10.8L1184.11,369a24.9,24.9,0,0,0-9-1.8H744.71a27.21,27.21,0,0,0-9,1.8l202,201.7Z" transform="translate(-527.91 -121.73)"/><path class="cls-2" d="M999.11,598.43c-11.2,11.5-25,17.9-39.1,17.9-13.9,0-27-5.8-38-16.7a3.21,3.21,0,0,1-.5-.3l-207.2-206.9a56.91,56.91,0,0,0-3.3,18.7l.3,284.9a53.33,53.33,0,0,0,6.6,26L844,596.53c3.1-3,7.4-2.2,9.7,1.8a11.12,11.12,0,0,1-1.3,12.8l-123.7,123.3a27,27,0,0,0,16.3,5.8h430.2a27.52,27.52,0,0,0,16.4-5.8l-122.9-123.2c-3.1-3.1-3.6-8.8-1.3-12.8s6.7-4.8,9.8-1.8l125,125.4a52.94,52.94,0,0,0,6.6-25.9l-.3-284.9a57,57,0,0,0-3.3-18.8l-205.7,205.9C999.51,598.23,999.21,598.33,999.11,598.43Z" transform="translate(-527.91 -121.73)"/></svg>