<svg xmlns="http://www.w3.org/2000/svg" width="472.711" height="190.03" viewBox="0 0 472.711 190.03">
  <g id="Help" transform="translate(-1.162 1998.8)">
    <path id="Path_26910" data-name="Path 26910" d="M11.037-1998.667a12.487,12.487,0,0,0-6.381,3.452,12.244,12.244,0,0,0-3.091,5c-.257.751-.257.818-.333,3.994-.1,4.356-.1,160.705.01,164.861.086,3.576.076,3.538.761,5.135a12.809,12.809,0,0,0,7.494,6.933c1.75.571-1.588.532,46,.5l43.747-.028.9-.333a12.928,12.928,0,0,0,5-3.062,11.641,11.641,0,0,0,3.376-5.954c.19-.751.2-1.132.285-15.178.086-14.865-.057-153.905-.162-155.351-.19-2.635-2.568-6.344-5.126-8.027a16.928,16.928,0,0,0-3.471-1.683l-.808-.257-5.373-.076c-2.958-.038-22.663-.066-43.795-.066C17.438-1998.8,11.56-1998.781,11.037-1998.667ZM62.469-1988.2l5.925.057.437.39a2.421,2.421,0,0,1,.561.694,1.9,1.9,0,0,1-.675,2.2l-.456.4H41.689l-.361-.285a1.9,1.9,0,0,1-.171-3.11c.333-.257.39-.266,1.826-.323C45.265-1988.253,55.879-1988.272,62.469-1988.2Zm16.206.019c.923.1,1.17.228,1.56.78a1.769,1.769,0,0,1-.238,2.3c-.485.532-.637.561-2.958.618l-2.14.048-.542-.571c-.637-.675-.808-1.141-.637-1.769a2.32,2.32,0,0,1,1.436-1.379A17.61,17.61,0,0,1,78.675-1988.177Zm26.448,16.957c.038,2.007.067,33.543.067,70.1v66.449l-50.214-.019-50.214-.029v-69.768c0-38.374.029-69.91.057-70.072l.067-.295H105.066Z" transform="translate(0 0)" fill="#426d61"/>
    <path id="Path_26911" data-name="Path 26911" d="M411.047-1667.763c-.713.323-10.471,5.887-13.476,7.684-1.664.989-1.712,1.037-1.893,2.083-.171.932-.171,16.586,0,17.366.133.6.342.846,1.312,1.465,1.075.685,12.744,7.39,13.571,7.8a2.2,2.2,0,0,0,2.644-.048c1.721-.884,12.44-7.076,13.723-7.922,1.255-.837,1.141.143,1.17-9.33.019-4.983-.009-8.493-.067-9.016-.152-1.36-.124-1.322-2.321-2.634-3.329-1.978-11.593-6.686-12.877-7.333A1.889,1.889,0,0,0,411.047-1667.763Zm2.14,4.584c1.046.561,10.128,5.773,10.87,6.239l.352.219v6.068c0,3.329.01,6.61.029,7.275l.019,1.227-6.305,3.642-6.305,3.633-6.3-3.633-6.3-3.633.019-3.176c0-1.75.019-5.04.019-7.313l.009-4.137,2.882-1.655c8.94-5.164,9.453-5.449,9.72-5.392A14.081,14.081,0,0,1,413.187-1663.179Z" transform="translate(-356.88 -299.396)" fill="#426d61"/>
    <path id="Path_26912" data-name="Path 26912" d="M478.751-1567.6a9.782,9.782,0,0,0-5.621,4.432c-.247.466-.561,1.17-.713,1.56a5.886,5.886,0,0,0-.3,2.463,7.6,7.6,0,0,0,.466,3.624,9.549,9.549,0,0,0,6.125,5.535,7.857,7.857,0,0,0,2.378.2,7.856,7.856,0,0,0,2.378-.2,9.336,9.336,0,0,0,6.619-7.18,11.955,11.955,0,0,0-.048-3.348,9.565,9.565,0,0,0-3.719-5.754,13.5,13.5,0,0,0-2.758-1.293,10.991,10.991,0,0,0-2.33-.19A7.209,7.209,0,0,0,478.751-1567.6Zm3.9,3.728a5.107,5.107,0,0,1,2.853,2.13,4.869,4.869,0,0,1,.894,2.986,5.158,5.158,0,0,1-1.512,3.766,5.133,5.133,0,0,1-3.424,1.522,5.163,5.163,0,0,1-4.147-1.579,5.015,5.015,0,0,1-1.284-5.43A5.264,5.264,0,0,1,482.65-1563.876Z" transform="translate(-426.154 -390.035)" fill="#426d61"/>
    <path id="Path_26913" data-name="Path 26913" d="M291.963-1297.19c-1.664.285-6.353,4.118-8.749,7.133a28.352,28.352,0,0,0-5.678,12.839,48.808,48.808,0,0,0,0,8.5,27.832,27.832,0,0,0,10.766,17.889,25.2,25.2,0,0,0,4.9,2.92c1.179.58,2.216,1.113,2.311,1.2.285.247.295-.114-.647,13.952-1.636,24.518-1.75,26.42-1.626,27.085a1.692,1.692,0,0,0,.961,1.122,1.8,1.8,0,0,0,2.416-.808c.2-.59.523-5.04,1.816-24.784,1.17-17.927,1.2-18.517.9-18.954-.247-.38-.732-.637-2.568-1.35a24.22,24.22,0,0,1-8.749-5.611,24.006,24.006,0,0,1-6.7-12.9,30.392,30.392,0,0,1-.152-6.838,24.113,24.113,0,0,1,5.155-12.126c1.484-1.845,3.861-4.052,4.042-3.738.01.019.048,2.92.086,6.448.048,4.622.1,6.5.181,6.7.19.485.77.942,7,5.526,6.619,4.879,6.638,4.888,7.294,4.888.58,0,.78-.133,7.684-5.221,4.736-3.49,5.8-4.308,6.315-4.85l.276-.295.076-1.826c.038-1.008.076-3.823.076-6.248.009-4.394.048-5.145.219-5.145.38,0,3.233,2.834,4.337,4.3a24.514,24.514,0,0,1,4.651,11.108,31.868,31.868,0,0,1,0,6.733,24.239,24.239,0,0,1-2.425,7.485,23.833,23.833,0,0,1-8.245,9.168,29.5,29.5,0,0,1-5.088,2.53c-1.5.552-2.073.865-2.359,1.284-.257.38-.257.1.038,5.135.38,6.515,2.159,33.381,2.368,35.787.247,2.853.247,2.815.514,3.129a1.968,1.968,0,0,0,2.244.466,1.474,1.474,0,0,0,.865-.913c.228-.552.266.066-1.626-28.341-.8-12.012-.827-12.573-.713-12.791a2.408,2.408,0,0,1,.742-.485c4.8-2.263,6.924-3.671,9.577-6.315a27.531,27.531,0,0,0,7.9-16.5,37.053,37.053,0,0,0-.1-6.9,26.026,26.026,0,0,0-2.587-8.312,27.979,27.979,0,0,0-8.264-9.948c-1.931-1.455-3.015-2.035-3.89-2.1a1.469,1.469,0,0,0-1.522.8l-.342.457v15.72l-.447.323c-.257.181-2.235,1.636-4.4,3.224s-4.384,3.214-4.917,3.595l-.98.694-1.037-.732c-.571-.4-2.986-2.159-5.354-3.9l-4.308-3.157-.048-7.884-.048-7.884-.323-.447a2.958,2.958,0,0,0-.542-.6A2.07,2.07,0,0,0,291.963-1297.19Z" transform="translate(-249.922 -634.866)" fill="#426d61"/>
    <path id="Path_26914" data-name="Path 26914" d="M548.994-771.794a3.59,3.59,0,0,0-.694.485l-.4.361.029,20.314c.029,19.762.038,20.323.209,20.675a1.706,1.706,0,0,0,1.512.894,1.529,1.529,0,0,0,1.522-.609l.361-.38-.029-20.2c-.029-15.407-.067-20.276-.152-20.533a2.006,2.006,0,0,0-1-1.037A2.147,2.147,0,0,0,548.994-771.794Z" transform="translate(-494.741 -1110.2)" fill="#426d61"/>
    <path id="Path_26915" data-name="Path 26915" d="M4272.991-1414.3c-9.387.162-11.241.171-15.131.066-2.434-.066-4.66-.085-4.945-.057-1.4.171-2.2.694-2.33,1.541a1.534,1.534,0,0,0,.485,1.455c.361.323.4.333,2.521.485a9.573,9.573,0,0,1,3.48.78,6.458,6.458,0,0,1,3.339,4.546l.247.913.085,7.561c.105,9.32.029,41.769-.1,45.031-.238,5.573-.485,7.171-1.389,9.054-.894,1.835-2.13,2.558-5.459,3.176-1.8.333-2.473.561-2.948,1-.323.285-.342.342-.342.865a1.288,1.288,0,0,0,.779,1.313c.323.152.57.162,2.6.114,1.227-.029,3.395-.143,4.8-.247a129.483,129.483,0,0,1,21.493.038,46.949,46.949,0,0,0,6.705.152c1.607-.247,2.216-.885,1.9-2.016-.237-.846-.894-1.065-3.709-1.217-3.071-.162-4.612-.675-6-1.978-1.132-1.075-1.664-2.454-2.054-5.354-.19-1.446-.267-9.777-.171-19.106l.066-6.885.827.067c1.778.124,11.364.181,13.371.067,8.046-.447,13.942-1.845,18.26-4.337a19.519,19.519,0,0,0,8.483-9.682,21.972,21.972,0,0,0,.59-12.573,17.086,17.086,0,0,0-6.21-9.415c-3.842-2.977-9.5-4.641-18.127-5.326C4291.194-1414.505,4284.756-1414.515,4272.991-1414.3Zm15.787,4.184a14.649,14.649,0,0,1,5.2,1.845,11.874,11.874,0,0,1,5.592,6.895,17.207,17.207,0,0,1,.78,4.936,20.372,20.372,0,0,1-4.708,14.17c-2.35,2.8-5.678,4.517-10.053,5.193a21.38,21.38,0,0,1-3.852.171,26.875,26.875,0,0,1-4.831-.266c-.028-.038-.076-7.285-.1-16.12l-.047-16.053.229-.057c.446-.1,3.385-.542,4.7-.694A24.053,24.053,0,0,1,4288.778-1410.111Z" transform="translate(-3845.212 -528.774)" fill="#426d61"/>
    <path id="Path_26916" data-name="Path 26916" d="M3454.565-1410.79a2.691,2.691,0,0,0-1.484.666c-.3.314-.323.371-.323,1.018a1.4,1.4,0,0,0,.219.989,2.483,2.483,0,0,0,1.788.78c.409.047,1.17.143,1.683.2a8.61,8.61,0,0,1,4.365,1.655,10.949,10.949,0,0,1,3.262,6.277c.58,2.948.618,3.994.618,20.98,0,22.406-.162,29.568-.723,33.429-.523,3.614-2.168,6.03-4.86,7.18a16.273,16.273,0,0,1-3.738.989c-2.777.475-3.148.675-3.214,1.7a1.4,1.4,0,0,0,.732,1.484c.59.323,1.522.352,4.479.114,7.038-.552,10.157-.618,27.247-.552,16.187.067,24.033.2,32.079.552a24.394,24.394,0,0,0,2.463.048c.2-.19,2.929-15.483,3.538-19.791.59-4.146.6-5.145.067-5.735a.987.987,0,0,0-.846-.38,2.106,2.106,0,0,0-.828.076c-.523.219-1.1,1.018-2.149,2.929a54.862,54.862,0,0,1-6.961,10.433,25.925,25.925,0,0,1-7.456,5.659c-3.214,1.588-6.686,2.283-12.82,2.568-5.8.266-7.865-.019-9.216-1.284-.989-.923-1.417-2.882-1.626-7.37-.124-2.568-.124-43.186,0-47.028.2-6.306.476-8.246,1.484-10.3,1.037-2.121,2.7-2.986,6.981-3.633A14.8,14.8,0,0,0,3493-1408a1.263,1.263,0,0,0,.609-1.2,1.383,1.383,0,0,0-.818-1.36c-.409-.209-.6-.238-1.75-.266-.7-.019-3.167.057-5.468.171-6.41.314-10.965.333-19.734.1C3455.154-1410.828,3454.878-1410.837,3454.565-1410.79Z" transform="translate(-3122.792 -532.052)" fill="#426d61"/>
    <path id="Path_26917" data-name="Path 26917" d="M1669.311-1407.807a1.621,1.621,0,0,0-1.132,1.931c.124,1.046.609,1.284,3.49,1.712,5.193.77,6.343,2.663,6.952,11.365.152,2.149.143,25.449-.019,34.9-.238,14.427-.58,17.784-2.121,20.77-1.065,2.054-2.749,2.9-6.819,3.433-1.341.171-1.969.4-2.378.875a.968.968,0,0,0-.285.827,1.4,1.4,0,0,0,.9,1.389c.428.209.618.238,1.864.266.761.019,2.13-.01,3.043-.067s2.748-.181,4.08-.266c1.854-.124,3.9-.162,8.654-.171a115.913,115.913,0,0,1,13.029.485c3.88.333,4.67.266,5.259-.428a1.491,1.491,0,0,0-.047-1.959c-.361-.418-.865-.561-2.444-.713a8.929,8.929,0,0,1-3.481-.894c-2.387-1.17-3.281-3.481-3.566-9.187-.162-3.11.019-11.26.437-19.924.086-1.778.171-3.252.19-3.262.038-.048,2.549-.276,4.46-.4,3.88-.266,27.466-.181,27.761.1.133.133.181,9.149.066,13.695-.2,7.846-.495,11.3-1.208,14.094s-1.588,4.242-3.062,5a10.95,10.95,0,0,1-4.869,1.056c-1.531.086-1.788.171-2.064.713a2.1,2.1,0,0,0,.038,1.664,1.982,1.982,0,0,0,1.246.732c.533.086,4.146-.066,9.158-.39a114.17,114.17,0,0,1,15.207-.1c4.261.133,8.474.295,9.368.352a7.76,7.76,0,0,0,3.015-.114,1.414,1.414,0,0,0,.789-1.588,1.178,1.178,0,0,0-.428-.789c-.475-.456-.942-.561-2.9-.656-2.939-.152-4.584-.7-5.706-1.921-1.274-1.37-1.854-3.386-2.045-7.085-.181-3.414-.314-23.025-.2-28.94.3-15.445.7-24.765,1.208-27.723a5.537,5.537,0,0,1,4.556-4.888,18.85,18.85,0,0,1,3.557-.39,4.235,4.235,0,0,0,2.1-.475,1.621,1.621,0,0,0,.571-1.379,1.333,1.333,0,0,0-.742-1.341c-.437-.219-2.064-.238-4.822-.067-3.747.247-7.313.342-12.839.352-4.888.01-6.305-.019-9.843-.219-2.53-.143-5.316-.228-7.18-.238-2.91-.01-3.062,0-3.424.19a1.545,1.545,0,0,0-.808,1.436.986.986,0,0,0,.295.837c.571.647,1.265.847,3.614,1.046,2.806.238,4.08.694,5.278,1.892a5.881,5.881,0,0,1,1.5,2.511,27.785,27.785,0,0,1,1.056,7.2c.076,1.7-.419,19.848-.542,19.933-.171.114-5.735.5-9.3.656-2.872.124-11.488.124-14.266,0-3.652-.162-8.445-.523-8.578-.647-.038-.038-.076-4.945-.1-10.908-.029-11.165,0-12.259.361-14.741.39-2.653,1.379-4.546,2.72-5.2a11.248,11.248,0,0,1,4.546-.789c1.474-.067,1.864-.171,2.311-.6a1.676,1.676,0,0,0,.086-2.121,2.548,2.548,0,0,0-1.969-.732c-.466-.019-4.28.076-8.464.219a152.186,152.186,0,0,1-17.261-.038c-2.606-.2-6.286-.4-7.038-.38A4.681,4.681,0,0,0,1669.311-1407.807Z" transform="translate(-1507.411 -534.692)" fill="#426d61"/>
    <path id="Path_26918" data-name="Path 26918" d="M2640.635-1405.721a1.278,1.278,0,0,0-.885.875,1.841,1.841,0,0,0,.124,1.55c.333.438.742.59,2.2.827,3.015.5,5.088,1.274,5.935,2.216a7.989,7.989,0,0,1,1.588,4.479c.371,3.6.457,13.381.257,33-.086,8.816-.2,17.09-.247,18.4-.257,6.534-1.16,9.615-3.272,11.117-1.446,1.037-2.843,1.427-5.535,1.569a5.823,5.823,0,0,0-1.969.276,1.291,1.291,0,0,0-.828,1.35,1.418,1.418,0,0,0,.9,1.474,2.63,2.63,0,0,0,1.655.285c.608,0,2.263-.076,3.671-.162a189.774,189.774,0,0,1,24.013-.219c7.779.333,10.357.371,24.385.38h14.161l1.74-7.7c.96-4.242,1.874-8.331,2.035-9.092.323-1.55.361-2.416.133-2.853a1.781,1.781,0,0,0-2.064-.523,5.043,5.043,0,0,0-1.769,2.206,22.1,22.1,0,0,1-7.551,8.445,29.685,29.685,0,0,1-9.32,3.956c-6.286,1.512-14.979,1.75-18.9.514a6.54,6.54,0,0,1-4.565-4.089c-.39-1.284-.571-5.535-.571-14.066,0-5.449.143-14.189.248-14.874l.047-.323,1.683.057c5.192.181,9.216,1.284,11.812,3.243a12.839,12.839,0,0,1,4.755,7.675c.666,2.615,1.2,3.328,2.4,3.186,1.084-.133,1.465-.647,1.379-1.864a14.992,14.992,0,0,0-.219-1.569c-.314-1.693-.276-16.291.067-21.665.048-.846.162-2.054.257-2.682a17.3,17.3,0,0,0,.162-1.778c0-.571-.028-.666-.276-.923a1.354,1.354,0,0,0-.78-.39c-1.1-.228-1.76.285-2.311,1.817a36.081,36.081,0,0,1-3.034,5.792,9.546,9.546,0,0,1-5.25,4.032c-2.187.666-3.614.818-7.551.818h-3.091l-.066-.219c-.114-.361-.086-13.524.038-16.472.152-3.528.352-6.809.59-9.748s.266-3.119.466-3.177c.276-.095,2.691-.428,4.118-.58a61.582,61.582,0,0,1,11.07-.047,30.416,30.416,0,0,1,6.6,1.427,18.156,18.156,0,0,1,7.085,4.8,50.777,50.777,0,0,1,5.849,7.085,7.544,7.544,0,0,0,1.75,2.007,1.181,1.181,0,0,0,.884.276c1.027,0,1.55-.466,1.55-1.4,0-.561-3.51-18.117-3.642-18.26-.029-.029-10.985-.086-24.337-.124-21.617-.076-24.869-.1-29.653-.276C2642.2-1405.883,2641.129-1405.893,2640.635-1405.721Z" transform="translate(-2386.066 -536.568)" fill="#426d61"/>
  </g>
</svg>
