<svg xmlns="http://www.w3.org/2000/svg" width="196.166" height="74.078" viewBox="0 0 196.166 74.078">
  <g id="Home-Logo-3-of-5-ContractDetective" transform="translate(-243.606 3352)">
    <path id="Path_828" data-name="Path 828" d="M263.837-3351.832c-1.2.3-1.869,1.013-1.869,2v.261l-.426.187a9.3,9.3,0,0,0-1.661.965,12.423,12.423,0,0,0-1.882,1.913,8.9,8.9,0,0,0-1.33,3.134,9.119,9.119,0,0,0-.1,2.9.834.834,0,0,1-.091.609,7.489,7.489,0,0,0-.43,1.53,8.222,8.222,0,0,0,0,2.487,7.55,7.55,0,0,0,1.713,3.608,8.543,8.543,0,0,0,1.13,1.056c.113.074.183.23.748,1.717a12.957,12.957,0,0,0,.991,2.169,6.385,6.385,0,0,0,2.413,2.473l.322.174-.822.552c-2.113,1.43-2.856,2.13-3.3,3.087a4.7,4.7,0,0,0-.4,2.1l.026.365-.3.374a5.174,5.174,0,0,0-.522.813l-.222.435-.322.052a1.9,1.9,0,0,0-1.174.639c-.509.509-.213.03-4.438,7.177-1.3,2.2-1.987,3.382-2.287,3.943l-.313.6-.261.1a17.389,17.389,0,0,0-4.291,2.339,3.091,3.091,0,0,0-1.1,1.613,1.826,1.826,0,0,0,.309,1.417,1.181,1.181,0,0,0,.722.365c.152,0,.178.022.409.335.33.452.73,1.061,1.078,1.643l.283.478-.022.309a.815.815,0,0,0,.256.743,1.463,1.463,0,0,0,1.374.191,2.992,2.992,0,0,1,.465-.113c2-.261,4.664-1.7,5.221-2.817a3.77,3.77,0,0,1,.213-.36,1.432,1.432,0,0,0,.165-.283c.057-.139.1-.17.4-.274l2.226-.813c1.03-.383,1.887-.691,1.891-.691a1.913,1.913,0,0,1,.183.239,3.38,3.38,0,0,0,3.565,1.152,5.177,5.177,0,0,0,2.56-1.969,1.153,1.153,0,0,1,.239-.317c.017.013.517.083,1.117.157a9.149,9.149,0,0,1,2.3.478c1.391.552,2.16,1.334,3.925,4.021,1.9,2.887,5.377,8.116,5.712,8.585a7.019,7.019,0,0,0,2.569,2.5c.23.1.252.126.448.509a3.573,3.573,0,0,0,1.217,1.3c.261.143.274.16.452.539a5.3,5.3,0,0,0,.691,1.291c.161.183.174.187.426.187.209,0,.283.022.365.091a2.353,2.353,0,0,0,.287.213l.182.122v3.426l6.838-.017c7.429-.013,7.1,0,8.094-.252,1.739-.439,2.621-1.469,2.991-3.482l.1-.535v-13.824c0-14.945.013-14.019-.23-14.758a3.8,3.8,0,0,0-1.113-1.7,4.235,4.235,0,0,0-1.387-.691c-.683-.17-1.035-.178-7.733-.165l-6.468.013,3.308,3.074,3.3,3.073,1.443.013c1.6.013,1.643.022,1.8.309.074.13.078.708.078,11.224,0,9.368-.009,11.106-.061,11.228-.113.27-.113.27-2.13.27h-1.83l-.009-10.941-.013-10.946-3.478-3.23-3.478-3.234-.022,10.837-.022,10.838-.348.213c-1.4.856-2.056.883-2.821.109-.509-.517-4.017-5.034-5.834-7.512a78.89,78.89,0,0,1-4.664-7.042c-1.221-2.078-1.574-3.026-1.443-3.891.191-1.3.961-2.091,5.025-5.151,2.517-1.9,5.186-3.7,9.759-6.594l1.326-.839.009.2a5.674,5.674,0,0,0,1.269,3.838,4.648,4.648,0,0,0,2.747,1.161c.4.061,1.026.074,4.995.087l4.543.017.626-3.273c.348-1.8.635-3.3.648-3.33a31.966,31.966,0,0,0-3.5-.052c-3.93,0-3.721.017-3.908-.3-.087-.152-.087-.182-.1-10.49l-.009-10.337-2.208.018a15,15,0,0,0-2.53.091,3.409,3.409,0,0,0-1.778.969,3.684,3.684,0,0,0-.648,1.309l-.117.422-.013,5.725-.009,5.729h-.139c-.074,0-.43-.031-.791-.07-1.33-.144-2.008.022-4.025.961-.878.408-1.582.774-2.4,1.248-.513.291-.53.3-.643.235a.905.905,0,0,0-.77-.031c-.361.109-.356.109-.356.026a1.938,1.938,0,0,1,.556-.344c.3-.156.7-.378.878-.5a4.8,4.8,0,0,0,2.26-4.321,15.058,15.058,0,0,0-.569-3.643c-.274-1.23-.278-1.257-.217-1.257a3.544,3.544,0,0,0,.409-.156c.591-.248.9-.57.9-.948a18.472,18.472,0,0,0-.5-2.582,11.909,11.909,0,0,0-.687-2.23.653.653,0,0,0-.335-.378,1.338,1.338,0,0,0-.978-.009,3.365,3.365,0,0,1-.348.078c-.009-.009-.1-.365-.217-.8-.939-3.556-2.278-5.412-4.621-6.4a11.833,11.833,0,0,0-6.664-.344l-.582.1-.243-.23A2,2,0,0,0,263.837-3351.832Zm1.152.974a4.033,4.033,0,0,1,1.343,1.826,61.97,61.97,0,0,1,2.8,6.829c.1.3.2.617.239.7a.527.527,0,0,1,.057.165,2.77,2.77,0,0,1-.226-.274,7.762,7.762,0,0,0-2.274-1.956l-.278-.152-.213-.517c-.122-.283-.452-1.108-.735-1.839s-.626-1.543-.752-1.8c-.609-1.269-1.208-1.952-1.821-2.06-.178-.031-.183-.035-.174-.2a.969.969,0,0,1,.087-.3A2.182,2.182,0,0,1,264.989-3350.858Zm6.725.548a5.256,5.256,0,0,1,1.5.413,6.544,6.544,0,0,1,3.447,4.434c.843,2.956,1.456,5.417,2.239,9.029a21.066,21.066,0,0,1,.509,2.86,4.65,4.65,0,0,1-1.391,4.195,14.524,14.524,0,0,1-4.238,1.935c-.974.322-3.178.935-3.378.935-.013,0-.039-.056-.052-.126-.026-.126-.487-1.23-.639-1.53a.95.95,0,0,0-1.039-.474,4.069,4.069,0,0,0-1.143.478,3.187,3.187,0,0,1-.422.217c-.022,0-.052-.052-.07-.122a4.067,4.067,0,0,0-.652-1.169l-.222-.248.065-.191a.563.563,0,0,0,.009-.4c-.044-.161-.044-.2,0-.217.03-.009.252-.117.5-.243a6.739,6.739,0,0,0,1.226-.8l.265-.213.47-.026a9.328,9.328,0,0,0,5.525-2.187c.543-.535.491-.561-.3-.169a20.5,20.5,0,0,1-3.26,1.3,16.094,16.094,0,0,1-1.691.378c-.026,0,.044-.113.156-.252a7.445,7.445,0,0,0,1.587-5.1,3.843,3.843,0,0,1-.03-.509,1.744,1.744,0,0,1,.309.213,3.875,3.875,0,0,0,5.534-.965,3.863,3.863,0,0,0-.383-4.786,4.114,4.114,0,0,0-1.9-1.126,4.38,4.38,0,0,0-1.856,0,3.951,3.951,0,0,0-2.565,2.043,1.931,1.931,0,0,1-.143.26c-.009-.008-.239-.639-.522-1.4-.669-1.826-1.1-2.887-1.608-4a17.653,17.653,0,0,1-.791-1.874,24.18,24.18,0,0,1,2.726-.556A10.294,10.294,0,0,1,271.714-3350.31Zm-8.429,1.552c.33.1.478.382,1.417,2.678a13.59,13.59,0,0,1,.735,1.878c-.009,0-.226-.048-.483-.1a7.322,7.322,0,0,0-4.921.6,7.2,7.2,0,0,0-1.83,1.3l-.443.421-.03-.5a6.32,6.32,0,0,1,1.943-4.83c.178-.169.43-.391.561-.487a8.007,8.007,0,0,1,2.126-.965A2.63,2.63,0,0,1,263.285-3348.758Zm10.794,4.6a3.3,3.3,0,0,1,2.1,1.656,2.96,2.96,0,0,1,.356,1.5,2.934,2.934,0,0,1-.356,1.491,3.271,3.271,0,0,1-.591.822,1.672,1.672,0,0,1,.113-.27,3.794,3.794,0,0,0,.143-2.965,3.407,3.407,0,0,0-2.213-1.969,3.627,3.627,0,0,0-1.952.1c-.048.013.07-.052.261-.148a3.258,3.258,0,0,1,.63-.235A3.806,3.806,0,0,1,274.079-3344.159Zm.009.656a2.593,2.593,0,0,1,.774.583,2.7,2.7,0,0,1,.778,1.2,3.3,3.3,0,0,1-.682,3.295,2.059,2.059,0,0,1-1.8.648,2.914,2.914,0,0,1-1.521-.434,3.947,3.947,0,0,1-1.1-1.091,3.3,3.3,0,0,1-.417-2.356,2.724,2.724,0,0,1,2.174-2,3.39,3.39,0,0,1,.861-.052l.556.013Zm-9.594.517a5.982,5.982,0,0,1,4.178,3.16,5.566,5.566,0,0,1,.643,2.226,5.91,5.91,0,0,1-.33,2.526,6.059,6.059,0,0,1-4.625,3.891,6.815,6.815,0,0,1-2.143-.022,5.993,5.993,0,0,1-4.769-4.769,6.815,6.815,0,0,1-.026-2.143,6.058,6.058,0,0,1,5.308-4.956A6.945,6.945,0,0,1,264.494-3342.986Zm14.88.687a20.673,20.673,0,0,1,.556,2c.013.083-.026.118-.248.209-.448.187-.635.248-.674.209s-.739-2.908-.739-3.008a.782.782,0,0,1,.339-.074,2.021,2.021,0,0,0,.4-.065.1.1,0,0,1,.1-.018A6.882,6.882,0,0,1,279.374-3342.3Zm9.351-.369a.792.792,0,0,1,.3.982.816.816,0,0,1-.8.417.776.776,0,0,1-.417-1.291A.778.778,0,0,1,288.724-3342.668Zm3.386.043a.738.738,0,0,1,.078,1.135.737.737,0,0,1-1.169-.144.779.779,0,0,1,.269-1.039A.8.8,0,0,1,292.111-3342.625Zm-11.989,3.308.043.278-.2.1c-.109.057-.3.144-.439.2l-.243.1-.074-.3a1.373,1.373,0,0,1-.052-.326c.026-.022.8-.3.878-.309C280.061-3339.59,280.1-3339.469,280.122-3339.316Zm-18.888,9.307a6.859,6.859,0,0,0,2.074.291,2.512,2.512,0,0,1,.7.048.811.811,0,0,0,.33.492c.117.065.148.1.126.169a3.035,3.035,0,0,0-.091,1.082,13.865,13.865,0,0,0,.283,2.043l.083.344-.291-.026a3.671,3.671,0,0,1-2.717-2.2,11.437,11.437,0,0,1-.913-2.134c-.083-.287-.083-.278-.013-.252C260.838-3330.136,261.029-3330.075,261.234-3330.01Zm4.447.091c.07.235-.343.452-.852.452-.213,0-.274-.017-.361-.108-.148-.144-.135-.187.057-.217.256-.048.848-.187.965-.231S265.641-3330.053,265.681-3329.918Zm-.565,1.3a13.909,13.909,0,0,0,.383,2.034c.1.4.165.735.161.739a1.7,1.7,0,0,1-.174.083l-.156.07-.2-.722a8.332,8.332,0,0,1-.4-2.421c.026-.143.039-.152.2-.152h.165Zm4.017.526a4.075,4.075,0,0,1,.7,1.639c0,.156-.065.234-.378.435l-.183.117-.161-.109a1.115,1.115,0,0,0-.309-.135,1.621,1.621,0,0,0-.878.126l-.217.113-.03-.161c-.017-.087-.122-.435-.235-.774l-.2-.609.743-.356C268.763-3328.179,268.945-3328.223,269.132-3328.093Zm7.125,1.426a.721.721,0,0,1-.057.682,11.2,11.2,0,0,1-1.687,1.669l-.43.348-.256-.283a6.1,6.1,0,0,1-.987-1.491c.009-.009.235-.091.5-.183.5-.174,2.356-.9,2.543-1,.1-.052.122-.048.209.035A.935.935,0,0,1,276.257-3326.667Zm1.382-.126a.349.349,0,0,1,.109.208,9.448,9.448,0,0,1-1.269,1.878,21.878,21.878,0,0,1-4.382,3.634l-.113.074v-.626l.3-.187c.378-.243,2.061-1.6,2.765-2.234a13.424,13.424,0,0,0,1.661-1.791c.339-.452.4-.583.361-.787a.421.421,0,0,1-.013-.148c.009,0,.1-.031.191-.065C277.487-3326.919,277.518-3326.919,277.639-3326.793Zm-8.807,1.213a2.407,2.407,0,0,1,.7.826c.509.839.526,1.235.074,1.543l-.191.131-.513-.9c-.287-.491-.6-1.035-.7-1.2l-.178-.309.156-.074A.86.86,0,0,1,268.832-3325.58Zm3.547.326a16.833,16.833,0,0,0,1.03,1.583l.1.122-.126.1a2.742,2.742,0,0,1-.274.182l-.148.079-.222-.24a8.268,8.268,0,0,1-1.239-1.891c.03-.009.2-.065.383-.126s.33-.1.335-.109A2.2,2.2,0,0,1,272.379-3325.254Zm-5.525-.165c.309.087.5.335,1.182,1.517l.63,1.108-.048.174a2.648,2.648,0,0,1-.956.944c-.178.108-1.139.674-2.13,1.252-2.191,1.287-3.925,2.33-4.638,2.787-.291.187-.578.361-.643.387a.8.8,0,0,1-.556-.013,3.6,3.6,0,0,1-.339-1.161,5.275,5.275,0,0,1,.091-1.73,3.718,3.718,0,0,1,1.091-1.726,13.764,13.764,0,0,1,2.1-1.565,14.449,14.449,0,0,1,3.56-1.935A.975.975,0,0,1,266.854-3325.419Zm3.817,2.639c.148.1.239.222.448.6.283.5.326.617.326.817s-.07.3-.439.543c-.156.1-.213.126-.243.083-.074-.1-1.013-1.756-1.013-1.791,0-.1.443-.326.652-.326A.57.57,0,0,1,270.671-3322.78Zm-1.052,1.643c0,.009-.052,0-.117-.03a1.649,1.649,0,0,0-.4-.052,2.884,2.884,0,0,0-1.361.5c-.222.13-1.035.6-1.813,1.061l-3.13,1.817c-1.926,1.113-2.213,1.3-2.4,1.569l-.135.192-.078-.122a5.018,5.018,0,0,1-.339-.635,1.48,1.48,0,0,1,.278-.035,1.408,1.408,0,0,0,.6-.174c.461-.23,1.956-1.13,3.669-2.213.813-.513,1.943-1.226,2.517-1.583,1.165-.734,1.6-1.091,1.791-1.482l.113-.235.409.7C269.436-3321.468,269.619-3321.142,269.619-3321.137Zm-.117.2c.278.117.43.309.974,1.221.778,1.3.9,1.539.917,1.839.03.43-.126.687-.635,1.026-.4.265-2.7,1.608-3.317,1.939a7.184,7.184,0,0,1-3.647.991,4.16,4.16,0,0,1-2.926-1.4,2.383,2.383,0,0,1-.365-.452c-.065-.261.226-.561.987-1.009,2.139-1.26,7.016-4.073,7.173-4.134A1.394,1.394,0,0,1,269.5-3320.933Zm2.33.448a2.735,2.735,0,0,1,.591,1.013c.222.548.239.7.091.852a1.373,1.373,0,0,1-.483.274c0-.009-.109-.209-.23-.448s-.326-.639-.461-.891a3.4,3.4,0,0,1-.235-.483,1.606,1.606,0,0,1,.535-.387A.413.413,0,0,1,271.832-3320.485Zm10.046.383a4.339,4.339,0,0,1-.422.265c-1.8,1.07-4.751,2.991-7.1,4.634-.735.513-1.652,1.152-2.043,1.417a10.3,10.3,0,0,0-3.621,3.547c-.583,1.208-.491,2.2.352,3.708.556,1,2.578,4.286,4.025,6.538,1.752,2.725,4.1,6.2,5.695,8.433.113.157-.117-.1-.735-.826a72.683,72.683,0,0,1-8.69-11.889c-.4-.722-1.213-2.326-1.435-2.848a3.7,3.7,0,0,1,.9-4.525,41.9,41.9,0,0,1,3.808-3.134,52.422,52.422,0,0,1,5.543-3.508c.791-.435,2.652-1.356,3.356-1.669C281.9-3320.133,281.878-3320.124,281.878-3320.1Zm-22.757,2.665a7.239,7.239,0,0,0,1.843,2.925l.2.17-.17.161a1.56,1.56,0,0,1-2.147-.109,2.575,2.575,0,0,1-.017-3.3c.087-.126.161-.23.165-.23A3.05,3.05,0,0,1,259.121-3317.438Zm-2.413,1.8a2.423,2.423,0,0,0,.387.861,8.757,8.757,0,0,0,1.635,1.591,6.984,6.984,0,0,0,1.4.735.761.761,0,0,1,.226.1.92.92,0,0,1-.148.183c-.5.526-3.243,4.225-5.786,7.8-1.748,2.465-2.156,2.947-2.7,3.2a1.172,1.172,0,0,1-.691.144,1.115,1.115,0,0,1-.643-.126,2.3,2.3,0,0,1-.965-.957c-.387-.779-.2-1.548.726-3.008,1.013-1.586,3.4-5.551,5.716-9.472a5.77,5.77,0,0,1,.8-1.152C256.691-3315.729,256.708-3315.686,256.708-3315.634Zm33.551,3.125a.744.744,0,0,1,0,1.344.75.75,0,0,1-1.082-.643.72.72,0,0,1,.456-.709A.633.633,0,0,1,290.259-3312.508Zm3.33,3.052a.722.722,0,0,1,.087,1.113.7.7,0,0,1-1.035.048.657.657,0,0,1-.235-.622.69.69,0,0,1,.782-.67A.63.63,0,0,1,293.589-3309.457Zm-33.677,2.269c1.213,1.96,2.391,3.747,2.86,4.343l.343.43v.352a2.087,2.087,0,0,1-2.221,2.113,1.333,1.333,0,0,1-1.087-.417,1.3,1.3,0,0,1-.23-.274.817.817,0,0,1,.3-.131c.274-.083.309-.087.422-.026a.418.418,0,0,0,.443,0c.352-.144.526-.413.643-.978a3.95,3.95,0,0,0-.639-2.822,3.042,3.042,0,0,0-.974-.956,1.371,1.371,0,0,0-.839-.135.909.909,0,0,0-.526.431c-.043.1-.1.13-.43.222-.209.057-.409.108-.448.122s-.091-.048-.161-.235c-.048-.139-.17-.474-.265-.743a4.325,4.325,0,0,1-.178-.557c0-.035.413-.622.922-1.308.852-1.148.926-1.235.982-1.161C258.864-3308.878,259.351-3308.1,259.912-3307.187Zm-3.421,2.2.117.374-.7.243c-.387.131-.709.235-.717.226s.235-.356.543-.769l.556-.752.039.152C256.356-3305.431,256.426-3305.192,256.491-3304.983Zm3.047.478a1.7,1.7,0,0,1,.735.648,2.35,2.35,0,0,1,.3.817c0,.061-.209.143-1.03.409-1.591.513-5.369,1.608-6.012,1.743-.1.022-.13-.009-.274-.239a.8.8,0,0,1-.143-.326c.013-.031.243-.335.513-.678s.591-.748.709-.9l.217-.274.826-.3c1.082-.4,2.147-.743,2.765-.908A1.949,1.949,0,0,1,259.538-3304.505Zm-10.672,1.108c-.013.092-.035.265-.048.391l-.03.226-.343.113a14,14,0,0,0-3.221,1.817,3.087,3.087,0,0,0-1,1.013l-.143.252-.039-.152a2.181,2.181,0,0,1-.022-.482,1.982,1.982,0,0,1,.661-1.317,9.334,9.334,0,0,1,2-1.348,7.242,7.242,0,0,1,2.078-.669C248.888-3303.558,248.892-3303.549,248.866-3303.4Zm11.637,1.013a1.7,1.7,0,0,1-.665.648c-.148.078-.974.382-1.839.678-1.374.469-3.665,1.265-3.856,1.344-.048.021-.1-.044-.183-.235s-.1-.27-.065-.282.465-.148.965-.3c1.456-.457,5.46-1.822,5.66-1.93C260.521-3302.471,260.516-3302.432,260.5-3302.384Zm-11.368.748a2.827,2.827,0,0,0,.678.757l.17.13-.517.213a19.865,19.865,0,0,0-3.4,1.782l-.426.283-.065-.1c-.035-.052-.222-.3-.409-.535s-.361-.457-.383-.487,0-.109.1-.234a12.307,12.307,0,0,1,3.186-2.108l.778-.4.074.226A2.738,2.738,0,0,0,249.136-3301.636Zm1.482,1.139a1.633,1.633,0,0,1,.248.083,1.379,1.379,0,0,1-.3.139c-.43.165-1.643.748-2.134,1.026-.522.3-1.43.891-1.852,1.208-.183.135-.352.265-.383.282s-.1-.035-.17-.148c-.117-.174-.117-.178-.035-.256.109-.1.891-.6,1.648-1.048.652-.383,2.565-1.347,2.673-1.347A2.751,2.751,0,0,1,250.618-3300.5Zm2.986,1.282a.282.282,0,0,1,.157.252.831.831,0,0,1,.013.178.557.557,0,0,1-.17-.083c-.143-.082-.2-.091-.561-.069a3.422,3.422,0,0,0-1.1.261,11.072,11.072,0,0,0-3.5,1.756c-.878.661-1.178,1.183-.882,1.531l.113.135h-.191a.632.632,0,0,1-.574-.309c-.083-.152-.083-.165-.009-.365a4,4,0,0,1,1.165-1.165,21.7,21.7,0,0,1,3.643-1.9A3.061,3.061,0,0,1,253.6-3299.215Zm-.113.613c.226.226.061.5-.674,1.13a10.57,10.57,0,0,1-4.164,2c-.391.087-.435.087-.556.026-.339-.178-.187-.613.374-1.083a14.093,14.093,0,0,1,3.569-1.908,2.636,2.636,0,0,1,1.074-.243C253.352-3298.689,253.422-3298.672,253.491-3298.6Zm31.386,13.363c0,.843-.009.934-.074.96a3.713,3.713,0,0,1-.6.052,1.921,1.921,0,0,1-.835-.069,2.337,2.337,0,0,1-1.009-.647l-.174-.2.23-.039a4.921,4.921,0,0,0,1.661-.6c.409-.209.752-.379.774-.383A6.881,6.881,0,0,1,284.877-3285.239Zm0,2.347v.539l-.365.113c-.383.117-.491.135-.578.078a10.027,10.027,0,0,1-.752-1.2c0-.017.043-.021.1-.009a3.544,3.544,0,0,0,1.161.013c.178-.035.352-.065.383-.069S284.877-3283.3,284.877-3282.892Z" transform="translate(0 -0.103)" fill="#fff"/>
    <path id="Path_829" data-name="Path 829" d="M886.415-3127.763a1.574,1.574,0,0,0-.9.865,1.483,1.483,0,0,0,.8,1.86,1.176,1.176,0,0,0,.574.113,1.418,1.418,0,0,0,1.313-.83,1.085,1.085,0,0,0,.139-.613,1.171,1.171,0,0,0-.117-.6,1.444,1.444,0,0,0-.943-.822A1.319,1.319,0,0,0,886.415-3127.763Z" transform="translate(-613.922 -214.409)" fill="#fff"/>
    <path id="Path_830" data-name="Path 830" d="M623.669-3129.59a4.538,4.538,0,0,0-3.7,2.913,3.872,3.872,0,0,0-.269,1.561,4.355,4.355,0,0,0,.648,2.356,5.346,5.346,0,0,0,1.356,1.4,4.5,4.5,0,0,0,4.973,0,5.344,5.344,0,0,0,1.356-1.4,4.355,4.355,0,0,0,.648-2.356,3.892,3.892,0,0,0-.274-1.569A4.535,4.535,0,0,0,623.669-3129.59Zm.5.669a4.308,4.308,0,0,0-2.473,1.687,5.356,5.356,0,0,0-.661,1.378,4.31,4.31,0,0,0,.017,1.8,3.88,3.88,0,0,0,.982,1.678,3.72,3.72,0,0,0,1.765,1.043c.252.069.291.087.174.087a3.943,3.943,0,0,1-2.8-1.435,4.906,4.906,0,0,1-.743-1.473,4.857,4.857,0,0,1-.07-1.548,3.874,3.874,0,0,1,3.743-3.269h.326Zm1.413.374a3.329,3.329,0,0,1,1.6.939,3.812,3.812,0,0,1,.861,2.665,3.341,3.341,0,0,1-.374,1.5,2.083,2.083,0,0,1-.543.761,3.5,3.5,0,0,1-1.947.982,3.026,3.026,0,0,1-2.713-.83,3.258,3.258,0,0,1-.856-1.378,2.417,2.417,0,0,1-.135-1.056,3.071,3.071,0,0,1,.322-1.613,3.7,3.7,0,0,1,1.9-1.886A2.956,2.956,0,0,1,625.582-3128.547Z" transform="translate(-359.745 -212.711)" fill="#fff"/>
    <path id="Path_831" data-name="Path 831" d="M703.536-3073.714a1.488,1.488,0,0,0-.948,1.991,1.453,1.453,0,0,0,1.587.856,1.431,1.431,0,0,0,1.091-.856,1.553,1.553,0,0,0,.022-1.143,1.8,1.8,0,0,0-.739-.756A1.562,1.562,0,0,0,703.536-3073.714Z" transform="translate(-438.916 -266.145)" fill="#fff"/>
    <path id="Path_832" data-name="Path 832" d="M654.629-2607.761a48.854,48.854,0,0,1-4.577,2.578c-1.513.757-1.926.891-2.656.865a.994.994,0,0,0-.4.026,4.459,4.459,0,0,0,.926.848,3.442,3.442,0,0,0,2.091.469,7.041,7.041,0,0,0,3.047-.878,13.867,13.867,0,0,0,2.726-1.748c.422-.335.556-.5.556-.656a3.179,3.179,0,0,0-.491-.974,1.506,1.506,0,0,0-.2-.252.579.579,0,0,0-.126.157,5.4,5.4,0,0,1-1.882,1.369c-.982.522-3.186,1.617-3.512,1.748a5,5,0,0,1-1.456.361l-.391.022.565-.235a30.056,30.056,0,0,0,5.064-2.7,9.016,9.016,0,0,0,1.391-1,.444.444,0,0,0-.174-.23C655.072-2608.031,654.981-2607.992,654.629-2607.761Z" transform="translate(-385.858 -711.653)" fill="#fff"/>
    <path id="Path_833" data-name="Path 833" d="M399.042-2454.1c-1.965,2.808-4.656,6.59-5.534,7.781-.278.382-.509.7-.509.722,0,.069.178.191.213.152.022-.022.569-.752,1.226-1.626s1.969-2.613,2.926-3.869,2.178-2.869,2.713-3.586.991-1.322,1.009-1.339c.043-.047.217.044.217.109,0,.091-2.543,3.613-4.434,6.143-1,1.343-2.608,3.43-3.217,4.186-.122.156-.139.2-.087.226a.883.883,0,0,0,.674-.061c.309-.148.556-.43,1.461-1.656.435-.6,1.874-2.526,3.2-4.286,2.621-3.5,3.491-4.669,3.508-4.734,0-.026-.148-.1-.339-.165a3.175,3.175,0,0,1-.982-.565l-.148-.131Z" transform="translate(-142.899 -856.285)" fill="#fff"/>
    <path id="Path_834" data-name="Path 834" d="M473.342-2240.84c-1.743.582-3.178,1.073-3.191,1.082s.009.07.048.131l.07.1.882-.282c1.226-.391,3.06-.939,4.417-1.317a5.581,5.581,0,0,0,1.139-.378.952.952,0,0,0-.17-.4C476.525-2241.9,475.086-2241.423,473.342-2240.84Z" transform="translate(-216.695 -1061.843)" fill="#fff"/>
    <path id="Path_835" data-name="Path 835" d="M1219.521-3351.952a3.934,3.934,0,0,0-3.265,2.574c-.231.673-.256.982-.256,3.234,0,1.131.017,2.056.035,2.056a.438.438,0,0,0,.144-.113,4.6,4.6,0,0,1,.9-.6,6.338,6.338,0,0,1,1.317-.431c.4-.086.513-.091,6.425-.1,5.655-.013,6.012-.022,5.99-.091-.009-.039-.287-1.535-.617-3.325l-.6-3.247-4.89,0C1222.008-3351.991,1219.677-3351.974,1219.521-3351.952Z" transform="translate(-930.123)" fill="#fff"/>
    <path id="Path_836" data-name="Path 836" d="M1616.312-3351.529a7.643,7.643,0,0,0-1.374.257,3.953,3.953,0,0,0-.948.43c.009,0,1.356,1.257,2.991,2.778l2.978,2.765h1.517c1.678,0,1.717,0,1.878.273.087.139.087.3.087,11.376,0,10.816,0,11.246-.078,11.364-.156.234-.23.243-1.965.243s-1.808-.009-1.965-.243c-.074-.117-.078-.557-.1-10.95l-.022-10.833-.7-.647-3.147-2.926-2.447-2.278-.083.1a5.037,5.037,0,0,0-.578,1.291,6.722,6.722,0,0,0-.156.826c-.035.3-.044,4.425-.03,14.115.013,15.1-.009,13.876.274,14.8a4.061,4.061,0,0,0,3.03,2.782c.843.213,1.261.226,6.355.2,4.812-.017,4.838-.022,5.564-.208a4.414,4.414,0,0,0,2.452-1.618,5.239,5.239,0,0,0,.782-2.269c.065-.539.07-27.43,0-27.917a4.9,4.9,0,0,0-.413-1.444,3.787,3.787,0,0,0-3.047-2.208c-.3-.061-.956-.07-5.512-.078C1618.816-3351.542,1616.407-3351.537,1616.312-3351.529Zm1.3.813a.7.7,0,0,1,.426.383.748.748,0,0,1-.687,1.078.784.784,0,0,1-.734-.63.794.794,0,0,1,.535-.839A.582.582,0,0,1,1617.607-3350.716Zm3.408,3.095a.707.707,0,0,1,.3.657.731.731,0,0,1-.439.626.66.66,0,0,1-.617,0,.736.736,0,0,1-.309-1.1A.735.735,0,0,1,1621.015-3347.621Z" transform="translate(-1309.069 -0.441)" fill="#fff"/>
    <path id="Path_837" data-name="Path 837" d="M2107-3334.112v17.888h6.608l.009-7.434.013-7.429,1.913,7.429,1.913,7.434h7.325v-16.462l-.726-.031a9.219,9.219,0,0,1-2.969-.513c-2.5-.991-3.769-3.221-4.69-8.25-.118-.635-.543-2.4-1.331-5.5-.639-2.512-1.187-4.669-1.226-4.795l-.061-.226H2107Z" transform="translate(-1782.391)" fill="#fff"/>
    <path id="Path_838" data-name="Path 838" d="M2348.008-3347.406l.013,4.6.208,1.087c.674,3.53,1.325,5.208,2.46,6.325a3.583,3.583,0,0,0,1.5.935,8.714,8.714,0,0,0,2.748.413h.365V-3352H2348Zm5.234,9.621a.783.783,0,0,1,.265.987.761.761,0,0,1-1.312.039A.755.755,0,0,1,2353.242-3337.785Z" transform="translate(-2012.914)" fill="#fff"/>
    <path id="Path_839" data-name="Path 839" d="M2564.126-3351.883c-.013.07-.435,1.561-.926,3.317l-.9,3.2,2.06.013,2.065.009.482-.461c2.217-2.113,4.369-2.43,6.516-.965a8.379,8.379,0,0,1,.991.852l.587.574,2.069-.009,2.069-.013-.882-3.3c-.487-1.817-.887-3.308-.887-3.317s-2.974-.009-6.607-.009h-6.608Z" transform="translate(-2217.899)" fill="#fff"/>
    <path id="Path_840" data-name="Path 840" d="M2997.413-3351.746c.026.022,1.539,1.43,3.369,3.13l3.325,3.091h1.369c1.534,0,1.586.009,1.76.3.087.152.087.2.087,5.868s0,5.717-.087,5.869c-.178.3-.174.3-2.247.3h-1.861V-3344.6l-3.334-3.1c-1.839-1.708-3.443-3.2-3.565-3.317l-.23-.213v35.224h7.129V-3327.4h.952l.1.334c.056.187.835,2.752,1.726,5.695l1.626,5.36h7.377l-.031-.1c-.017-.052-.847-2.582-1.847-5.616s-1.822-5.56-1.83-5.608c-.013-.078.017-.091.378-.117a2.879,2.879,0,0,0,1.617-.6,3.7,3.7,0,0,0,1.065-1.656l.1-.326.013-8.564c.009-5.943,0-8.733-.035-9.12a3.95,3.95,0,0,0-2.747-3.787c-.9-.274-.469-.256-7.664-.274C2999.752-3351.78,2997.387-3351.772,2997.413-3351.746Zm4.816.9a.822.822,0,0,1,.335.622.769.769,0,0,1-.756.743.688.688,0,0,1-.556-.248.682.682,0,0,1-.118-.826A.736.736,0,0,1,3002.229-3350.846Zm3.138,2.943a.75.75,0,0,1,.231,1.139.9.9,0,0,1-.578.282.885.885,0,0,1-.613-.33.54.54,0,0,1-.126-.434.533.533,0,0,1,.13-.435A.725.725,0,0,1,3005.368-3347.9Z" transform="translate(-2632.746 -0.215)" fill="#fff"/>
    <path id="Path_841" data-name="Path 841" d="M3462.051-3334.208c-1.765,9.781-3.217,17.832-3.23,17.884l-.022.1h7.181l.022-.1c.009-.052.147-1,.3-2.1s.3-2.052.309-2.121l.026-.117h4.9l.043.291c.022.165.165,1.161.317,2.217l.278,1.926h7.195l-.022-.1c-.026-.1-2.021-11.15-2.021-11.185a.852.852,0,0,0-.209.153,5.176,5.176,0,0,1-2.226.948,27.1,27.1,0,0,1-3.934.065c-1.935-.009-3.526-.017-3.53-.022s.369-2.839.826-6.3.848-6.277.861-6.26.344,2.526.73,5.573.717,5.577.726,5.616c.022.074.139.079,1.717.079.93,0,1.883-.022,2.113-.048a2.788,2.788,0,0,0,2.325-1.278c.257-.556.418.5-1.8-11.759-1.1-6.086-2-11.107-2.017-11.163l-.021-.1h-7.629Zm12.854,3.96a.77.77,0,0,1,.448.826.841.841,0,0,1-.743.635.918.918,0,0,1-.617-.344.719.719,0,0,1,.043-.9A.744.744,0,0,1,3474.906-3330.247Z" transform="translate(-3075.427)" fill="#fff"/>
    <path id="Path_842" data-name="Path 842" d="M3973.434-3351.952a3.956,3.956,0,0,0-3.252,2.509c-.243.708-.247.73-.265,3.13l-.018,2.23.318-.239a5.16,5.16,0,0,1,2.121-.921c.339-.07.9-.078,6.382-.091,5.655-.013,6.012-.022,5.99-.091-.009-.039-.287-1.535-.617-3.325l-.6-3.247-4.891,0C3975.912-3351.991,3973.586-3351.974,3973.434-3351.952Z" transform="translate(-3564.309)" fill="#fff"/>
    <path id="Path_843" data-name="Path 843" d="M4346.751-3348.77c-.5,1.773-.917,3.269-.93,3.321l-.022.1h4.365l.513-.491c1.913-1.83,3.834-2.3,5.716-1.383a6.577,6.577,0,0,1,1.778,1.317l.561.557h1.952c1.661,0,1.952-.009,1.939-.061-.009-.035-.4-1.53-.882-3.325l-.87-3.265h-13.215Z" transform="translate(-3923.869)" fill="#fff"/>
    <path id="Path_844" data-name="Path 844" d="M2675.369-3221.628a5.174,5.174,0,0,0-2.839,1.726l-.53.552v27.817h7.3v-27.743l-.269-.331a5.617,5.617,0,0,0-2.53-1.917A3.338,3.338,0,0,0,2675.369-3221.628Zm.63,1.978a.741.741,0,0,1-.065,1.365.754.754,0,0,1-1.009-.561.735.735,0,0,1,.174-.626A.691.691,0,0,1,2676-3219.65Z" transform="translate(-2322.83 -124.69)" fill="#fff"/>
    <path id="Path_845" data-name="Path 845" d="M4459.486-3221.518a5.962,5.962,0,0,0-3.2,2.191l-.291.343v27.547h7.26v-28.082l-.487-.5a4.056,4.056,0,0,0-2.726-1.513A2.852,2.852,0,0,0,4459.486-3221.518Zm.717,1.952a.752.752,0,0,1,0,1.348.687.687,0,0,1-.83-.118.69.69,0,0,1-.248-.561A.742.742,0,0,1,4460.2-3219.566Z" transform="translate(-4029.278 -124.788)" fill="#fff"/>
    <path id="Path_846" data-name="Path 846" d="M3973.019-3167.952a3.393,3.393,0,0,0-2.022.908,3.076,3.076,0,0,0-.791,1.413l-.1.348-.018,10.128c-.013,11.042-.017,10.715.23,11.707.487,1.913,1.509,2.769,3.747,3.121.417.065.987.078,5.012.091l4.542.017.622-3.252c.343-1.786.635-3.286.643-3.33.022-.07-.165-.074-3.491-.074-3.925,0-3.717.017-3.9-.3-.087-.152-.087-.182-.1-10.49l-.009-10.333-2.035,0C3974.236-3167.991,3973.189-3167.974,3973.019-3167.952Zm-.209,1.13a.754.754,0,0,1,.408,1.03.731.731,0,0,1-1.1.287.835.835,0,0,1-.334-.6,1,1,0,0,1,.23-.548A.77.77,0,0,1,3972.81-3166.822Zm3.434.061a.7.7,0,0,1,.352.7.743.743,0,0,1-1.269.474A.753.753,0,0,1,3976.244-3166.761Z" transform="translate(-3564.489 -176.002)" fill="#fff"/>
    <path id="Path_847" data-name="Path 847" d="M1676-2457.114v5.881l.161.322a2.873,2.873,0,0,0,1.948,1.417l.435.117,2.356.017,2.36.013.009-3.534.013-3.535,3.852-.021,3.847-.022-.5-2.739c-.283-1.509-.552-2.978-.609-3.274l-.1-.53H1676Zm2.891,5.368a.823.823,0,0,1,.352.509.763.763,0,0,1-.739.887.774.774,0,0,1-.765-.748.965.965,0,0,1,.252-.57A.8.8,0,0,1,1678.891-2451.745Zm3.547.022a.885.885,0,0,1,.343.617.854.854,0,0,1-.491.708.757.757,0,0,1-.874-1.156A.751.751,0,0,1,1682.438-2451.724Z" transform="translate(-1370.126 -850.355)" fill="#fff"/>
    <path id="Path_848" data-name="Path 848" d="M2057.134-2462.948c-.013.031-.43,1.5-.926,3.273l-.909,3.217,1.978.013,1.978.009.483-.469a6.226,6.226,0,0,1,3-1.774,5.307,5.307,0,0,1,1.574-.022,5.723,5.723,0,0,1,2.956,1.73l.535.535h2.091a10.187,10.187,0,0,0,2.069-.056c-.009-.026-.4-1.5-.878-3.282l-.861-3.225h-6.538C2058.5-2463,2057.148-2462.987,2057.134-2462.948Z" transform="translate(-1732.938 -850.355)" fill="#fff"/>
    <path id="Path_849" data-name="Path 849" d="M2484.009-2457.118l.013,5.882.161.326a2.2,2.2,0,0,0,.808.921,3.93,3.93,0,0,0,1.2.517,11.515,11.515,0,0,0,2.73.109l2.378.017v-7.09h7.7l-.026-.122c-.013-.065-.278-1.5-.591-3.182s-.574-3.108-.587-3.165l-.021-.1H2484Zm2.8,5.33a.856.856,0,0,1,.439.465,1.017,1.017,0,0,1-.109.665.756.756,0,0,1-1.361-.422.709.709,0,0,1,.257-.578A.658.658,0,0,1,2486.8-2451.789Zm3.521,0a.735.735,0,0,1,.352,1.065.716.716,0,0,1-.7.365.744.744,0,0,1-.478-1.274A.694.694,0,0,1,2490.325-2451.789Z" transform="translate(-2143.002 -850.355)" fill="#fff"/>
    <path id="Path_850" data-name="Path 850" d="M2889.486-2462.952a3.912,3.912,0,0,0-3.269,2.669,9.689,9.689,0,0,0-.217,3.1c0,1.083.013,1.969.026,1.969a1.094,1.094,0,0,0,.191-.144,4.955,4.955,0,0,1,1.908-.887c.552-.135.587-.135,7.79-.178l4.765-.031-.491-2.652c-.269-1.46-.543-2.93-.608-3.273l-.113-.617-4.855,0C2891.942-2462.991,2889.638-2462.974,2889.486-2462.952Z" transform="translate(-2527.527 -850.355)" fill="#fff"/>
    <path id="Path_851" data-name="Path 851" d="M3260.222-2462.926c-.009.044-.426,1.517-.922,3.274l-.9,3.195,1.973.013,1.978.009.482-.469q2.719-2.654,5.5-1.513a6.535,6.535,0,0,1,2.073,1.491l.487.491h2.091a10.224,10.224,0,0,0,2.073-.056c-.009-.026-.4-1.5-.878-3.282l-.861-3.225h-6.542C3260.591-2463,3260.243-2463,3260.222-2462.926Z" transform="translate(-2883.739 -850.355)" fill="#fff"/>
    <path id="Path_852" data-name="Path 852" d="M3688-2460.057c0,2.8,0,2.934.078,2.873a6.965,6.965,0,0,1,1.674-1.122,4.222,4.222,0,0,1,3.029-.3,6.388,6.388,0,0,1,2.161,1.23l.1.083v-5.7H3688Z" transform="translate(-3294.663 -850.355)" fill="#fff"/>
    <path id="Path_853" data-name="Path 853" d="M3895.726-2462.839c.018.091,1.487,8.055,3.269,17.692s3.239,17.54,3.239,17.553,1.661.021,3.686.021h3.686l.426-2.338c.24-1.282.43-2.352.435-2.369a1.126,1.126,0,0,0-.386-.139,4.776,4.776,0,0,1-2.3-1.239,4.876,4.876,0,0,1-1.352-2.287,24.709,24.709,0,0,1-.391-2.8c-.3-2.552-2.387-18.609-2.882-22.148l-.291-2.087-3.583-.013L3895.7-2463Z" transform="translate(-3493.335 -850.355)" fill="#fff"/>
    <path id="Path_854" data-name="Path 854" d="M4148.722-2460.513c-.2,1.369-.73,5.316-1.187,8.772l-.834,6.282.487,4.239c.265,2.33.508,4.373.535,4.538a3.594,3.594,0,0,0,1.964,2.678,4.085,4.085,0,0,0,1.126.343c.009-.009,1.222-6.56,2.7-14.558s2.7-14.593,2.708-14.663l.021-.117h-7.168Zm.047,14.528a.77.77,0,0,1,.448.826.841.841,0,0,1-.743.635.917.917,0,0,1-.617-.343.72.72,0,0,1,.043-.9A.745.745,0,0,1,4148.769-2445.986Zm1.3,7.833a.733.733,0,0,1,.126,1.117.686.686,0,0,1-.552.248.687.687,0,0,1-.552-.248.7.7,0,0,1-.125-.822A.741.741,0,0,1,4150.073-2438.152Z" transform="translate(-3733.424 -850.355)" fill="#fff"/>
    <path id="Path_855" data-name="Path 855" d="M4412-2457.01v5.986l.165.278a2.964,2.964,0,0,0,1.861,1.252l.43.117,2.4.017,2.4.013v-7.09h7.7l-.031-.165c-.013-.087-.287-1.561-.6-3.269l-.574-3.108-6.877-.013L4412-2463Zm2.682,5.2a.69.69,0,0,1,.409.378.75.75,0,0,1-.822,1.061.682.682,0,0,1-.474-.33.714.714,0,0,1,.1-.943A.7.7,0,0,1,4414.682-2451.806Zm3.456-.022a.752.752,0,0,1,.37,1.2.736.736,0,0,1-1.091.066.715.715,0,0,1-.161-.856.655.655,0,0,1,.426-.4A.575.575,0,0,1,4418.138-2451.828Z" transform="translate(-3987.191 -850.355)" fill="#fff"/>
    <path id="Path_856" data-name="Path 856" d="M862.437-2387.677a1.414,1.414,0,0,0-.691.652,1.274,1.274,0,0,0,.213,1.4,1.138,1.138,0,0,0,.861.391.918.918,0,0,0,.626-.117,1.268,1.268,0,0,0,.009-2.273A1.625,1.625,0,0,0,862.437-2387.677Zm.383.7a4.6,4.6,0,0,1-.326,1.226c-.174,0-.461-.461-.461-.739a.961.961,0,0,1,.6-.809c.065-.013.139-.031.161-.035C862.863-2387.351,862.871-2387.281,862.819-2386.973Zm.622-.161a.858.858,0,0,1-.317,1.457l-.139.031.026-.235c.017-.131.078-.474.135-.765s.1-.543.1-.557C863.25-2387.251,863.328-2387.221,863.441-2387.134Z" transform="translate(-591.153 -922.347)" fill="#fff"/>
    <path id="Path_857" data-name="Path 857" d="M2167.038-2334.6a5.655,5.655,0,0,0-2.73,1.752l-.309.335v27.717h7.216v-27.4l-.322-.4a6.559,6.559,0,0,0-2.048-1.743A3,3,0,0,0,2167.038-2334.6Zm.891,1.986a.746.746,0,0,1,.33.622.765.765,0,0,1-.748.765.883.883,0,0,1-.635-.357A.755.755,0,0,1,2167.93-2332.618Z" transform="translate(-1836.913 -973.125)" fill="#fff"/>
    <path id="Path_858" data-name="Path 858" d="M3370.065-2334.772a5.031,5.031,0,0,0-2.573,1.574l-.491.487v27.739h7.216v-27.4l-.326-.4a5.114,5.114,0,0,0-2.921-2.017A2.127,2.127,0,0,0,3370.065-2334.772Zm.791,1.939a.781.781,0,0,1,.344.991.956.956,0,0,1-.526.422.762.762,0,0,1-.783-1.161A.743.743,0,0,1,3370.856-2332.833Z" transform="translate(-2987.617 -972.953)" fill="#fff"/>
    <path id="Path_859" data-name="Path 859" d="M3691.151-2334.586a3.1,3.1,0,0,0-.956.343,7.306,7.306,0,0,0-1.9,1.521l-.3.339v27.6h7.042v-27.773l-.482-.5a5.791,5.791,0,0,0-1.378-1.139A3.025,3.025,0,0,0,3691.151-2334.586Zm.787,1.934a.749.749,0,0,1,0,1.347.682.682,0,0,1-.826-.117.689.689,0,0,1-.248-.556A.742.742,0,0,1,3691.938-2332.651Z" transform="translate(-3294.663 -973.144)" fill="#fff"/>
    <path id="Path_860" data-name="Path 860" d="M2888.63-2279.93a3.2,3.2,0,0,0-1.782.865,2.832,2.832,0,0,0-.735,1.3l-.113.383v10.007c0,6.772.013,10.163.048,10.485a6.192,6.192,0,0,0,.57,2.213c.582,1.169,1.491,1.739,3.295,2.048.361.065,1,.074,4.969.091,2.8.013,4.552,0,4.552-.022s1.2-6.286,1.239-6.477l.021-.1h-7.073l-.121-.1c-.257-.2-.239.509-.239-10.576V-2280l-2.139,0A21.535,21.535,0,0,0,2888.63-2279.93Zm-.043,1.065a.788.788,0,0,1,.57.843.974.974,0,0,1-.339.513.844.844,0,0,1-.8.022.756.756,0,0,1,.139-1.361A.485.485,0,0,1,2888.586-2278.865Zm3.556.109a.734.734,0,0,1,.126,1.117.687.687,0,0,1-.552.248.686.686,0,0,1-.552-.248.7.7,0,0,1-.126-.822A.742.742,0,0,1,2892.142-2278.757Z" transform="translate(-2527.527 -1025.4)" fill="#fff"/>
    <path id="Path_861" data-name="Path 861" d="M1676-2129.306v10.694h13.472l.043-.23c.061-.283,1.178-6.33,1.178-6.355s-1.674-.022-3.717-.022h-3.717l.009-3.86.013-3.856,2.926-.013,2.921-.009v-6.086h-5.155c-4.378,0-5.225-.009-5.6-.065a5.587,5.587,0,0,1-2.113-.721L1676-2140Z" transform="translate(-1370.126 -1159.314)" fill="#fff"/>
    <path id="Path_862" data-name="Path 862" d="M2484-2128.328v10.672l6.746-.009,6.751-.013.6-3.2c.326-1.756.6-3.239.6-3.295l0-.1h-7.39V-2132h5.868l-.009-3.034-.013-3.03-5.368-.022c-5.286-.026-5.373-.026-5.773-.117a5.8,5.8,0,0,1-1.8-.708.462.462,0,0,0-.165-.087C2484.013-2139,2484-2136.035,2484-2128.328Z" transform="translate(-2143.002 -1160.27)" fill="#fff"/>
    <path id="Path_863" data-name="Path 863" d="M4412-2127.163v10.655h13.454l.6-3.252c.331-1.787.6-3.273.6-3.3a36.481,36.481,0,0,0-3.695-.052h-3.7v-7.738h5.869v-6.081l-5.4-.018-5.4-.013-.426-.1a6.3,6.3,0,0,1-1.539-.561c-.165-.091-.309-.174-.326-.178S4412-2133.023,4412-2127.163Z" transform="translate(-3987.191 -1161.418)" fill="#fff"/>
    <path id="Path_864" data-name="Path 864" d="M1121.078-2012.871a1.206,1.206,0,0,0-.583.4,1.249,1.249,0,0,0,.444,1.987.932.932,0,0,0,.569.087,1.1,1.1,0,0,0,.839-.37,1.249,1.249,0,0,0-.056-1.813,1.533,1.533,0,0,0-.417-.261A1.653,1.653,0,0,0,1121.078-2012.871Zm.309.709a8.235,8.235,0,0,1-.3,1.269c-.07.043-.348-.244-.417-.43a.87.87,0,0,1,.335-1.048.989.989,0,0,1,.417-.122A1.665,1.665,0,0,1,1121.387-2012.162Zm.665-.07a1.112,1.112,0,0,1,.2.309.957.957,0,0,1-.109.752c-.156.235-.591.452-.591.292a7.255,7.255,0,0,1,.309-1.509A.718.718,0,0,1,1122.052-2012.232Z" transform="translate(-838.461 -1280.883)" fill="#fff"/>
  </g>
</svg>
