<svg id="Layer_1" data-name="Layer 1" xmlns="http://www.w3.org/2000/svg" viewBox="0 0 342.02 36"><path d="M11.22,22.57c0,3.65,0,6.78-.19,8.44-.12,1.16-.36,2-1.16,2.19a6.18,6.18,0,0,1-1.42.16c-.48,0-.64.12-.64.32s.28.39.79.39c1.59,0,4.09-.12,5-.12,1.11,0,3.61.12,6.23.12.44,0,.76-.12.76-.39s-.2-.32-.64-.32a16.68,16.68,0,0,1-2-.16c-1.19-.16-1.43-1-1.55-2.14-.2-1.71-.2-4.84-.2-8.49V6.3l5,.12c3.53.08,4.61,1.19,4.68,2.22v.44c0,.6.12.79.44.79s.32-.24.36-.63c0-1,.12-3.77.12-4.61,0-.59,0-.83-.32-.83a9.6,9.6,0,0,0-1.07.2,19.32,19.32,0,0,1-2.74.2H7c-1.31,0-2.82-.08-4-.2a8.53,8.53,0,0,1-1.71-.48c-.24,0-.36.24-.48.76C.71,4.6,0,8.21,0,8.84c0,.43.08.63.35.63S.67,9.32.75,9a4.7,4.7,0,0,1,.67-1.39C2,6.74,3,6.54,5.27,6.46l5.91-.16Z" transform="translate(0.04 -0.05)" style="fill:#545454"/><path d="M39.31,16.7a.24.24,0,0,1-.24-.26v-.86c0-6,0-7.14.08-8.4s.44-2.07,1.44-2.26a5.54,5.54,0,0,1,1.15-.12c.48,0,.71-.09.71-.36s-.28-.36-.83-.36c-1.55,0-4,.12-5,.12s-3.57-.12-5.71-.12c-.56,0-.84.08-.84.36s.24.36.68.36a7.93,7.93,0,0,1,1.54.12c1.32.27,1.63.91,1.71,2.26s.08,2.38.08,8.4v7c0,3.65,0,6.78-.2,8.44-.15,1.16-.35,2-1.15,2.19a6.27,6.27,0,0,1-1.43.16c-.47,0-.63.12-.63.32s.27.39.79.39c1.59,0,4.09-.12,5-.12,1.11,0,3.61.12,6.19.12.48,0,.79-.12.79-.39s-.19-.32-.63-.32a16.68,16.68,0,0,1-2-.16c-1.18-.16-1.42-1-1.54-2.14-.2-1.71-.2-4.84-.2-8.49v-3.5a.21.21,0,0,1,.17-.24H54.46a.23.23,0,0,1,.24.22v3.51c0,3.65,0,6.78-.2,8.44-.16,1.16-.35,2-1.15,2.19a6.27,6.27,0,0,1-1.43.16c-.47,0-.63.12-.63.32s.28.39.83.39c1.55,0,4-.12,5-.12s3.61.12,6.19.12c.48,0,.79-.12.79-.39s-.19-.32-.63-.32a16.68,16.68,0,0,1-2-.16c-1.19-.16-1.43-1-1.55-2.14-.19-1.71-.19-4.84-.19-8.49v-7c0-6,0-7.14.08-8.4s.4-2.07,1.46-2.26a5.54,5.54,0,0,1,1.15-.12c.48,0,.72-.09.72-.36s-.28-.36-.84-.36c-1.54,0-4,.12-5,.12s-3.57-.12-5.71-.12c-.56,0-.84.08-.84.36s.24.36.68.36A8,8,0,0,1,53,4.91c1.3.27,1.62.91,1.7,2.26s.08,2.38.08,8.4v.9a.25.25,0,0,1-.22.28h0Z" transform="translate(0.04 -0.05)" style="fill:#545454"/><path d="M72.66,22.57c0,3.65,0,6.78-.19,8.44-.16,1.16-.36,2-1.15,2.19a6.27,6.27,0,0,1-1.43.16c-.48,0-.64.12-.64.32s.28.39.79.39c.8,0,1.83-.08,2.74-.08H75c1.2,0,2.43,0,4.13.12s3.89.12,6.86.12c1.51,0,1.87,0,2.14-1a31.21,31.21,0,0,0,.52-4.41c0-.39,0-.71-.32-.71s-.35.16-.43.59c-.28,1.63-.75,2.47-1.79,2.94a10,10,0,0,1-3.73.48c-4,0-4.68-.6-4.76-3.33V19.47c0-.23,0-.4.24-.4,1,0,4.88.05,5.63.12,1.47.16,2,.76,2.23,1.55a8.56,8.56,0,0,1,.15,1.43.32.32,0,0,0,.27.36h.09c.36,0,.36-.44.36-.76s.12-1.86.16-2.65c.16-2,.32-2.66.32-2.9s-.12-.32-.28-.32-.36.2-.64.52a2.83,2.83,0,0,1-1.9.59c-.91.08-5.47.08-6.35.08-.24,0-.28-.16-.28-.44v-10c0-.28.08-.4.28-.4.8,0,5,.08,5.64.16,2,.24,2.38.72,2.65,1.43a4.34,4.34,0,0,1,.24,1.43c0,.36.08.55.36.55s.36-.24.4-.43c.08-.48.15-2.23.19-2.62a24.56,24.56,0,0,1,.32-2.58c0-.2,0-.36-.24-.36a4.85,4.85,0,0,0-.63.16,16.74,16.74,0,0,1-1.71.24H75.24c-.55,0-1.47,0-2.5-.08s-2.14,0-3.21,0c-.59,0-.87.08-.87.36s.24.36.67.36A8,8,0,0,1,70.88,5c1.31.27,1.63.91,1.71,2.26s.07,2.38.07,8.4Z" transform="translate(0.04 -0.05)" style="fill:#545454"/><path d="M106.75,14.11c0-7,0-8.27.1-9.74s.46-2.39,1.7-2.62a11.89,11.89,0,0,1,1.79-.14c.55,0,.83-.09.83-.41s-.33-.42-1-.42c-1.8,0-5.14.14-6.25.14S99.79.78,97.63.78c-.69,0-1,.09-1,.42s.27.41.78.41a6.47,6.47,0,0,1,1.52.14c1.51.32,1.88,1,2,2.62s.09,2.75.09,9.74v8.08c0,4.22,0,7.85-.23,9.78-.18,1.33-.41,2.35-1.33,2.53a7.59,7.59,0,0,1-1.65.19c-.56,0-.74.13-.74.36s.32.46.92.46c.92,0,2.11-.09,3.17-.09s2.11-.05,2.62-.05c1.88,0,3.54.05,5.6.14s4.46.14,7.76.14c2.39,0,2.62-.23,2.9-1.24a36.17,36.17,0,0,0,.69-5.28c0-.55,0-.78-.37-.78s-.46.27-.51.68a5.85,5.85,0,0,1-1.19,2.76c-1.15,1.24-2.94,1.29-5.38,1.29-3.58,0-4.77-.33-5.55-1-1-.83-1-4-1-9.88Z" transform="translate(0.04 -0.05)" style="fill:#426d61"/><path d="M128.8,22.19c0,4.45,0,8.08-.23,10-.14,1.33-.41,2.12-1.33,2.3a7.59,7.59,0,0,1-1.65.19c-.56,0-.74.13-.74.36s.32.46.92.46c1.84,0,4.73-.14,5.79-.14,1.24,0,4.13.14,7.16.14.51,0,.88-.14.88-.46s-.23-.36-.74-.36a20.5,20.5,0,0,1-2.34-.19c-1.38-.18-1.7-1-1.84-2.25-.18-2-.18-5.61-.18-10.06V14.11c0-7,0-8.27.09-9.74s.46-2.39,1.7-2.62a7.1,7.1,0,0,1,1.38-.14c.46,0,.73-.09.73-.46s-.37-.37-1-.37c-1.75,0-4.46.14-5.6.14-1.34,0-4.23-.14-6-.14-.73,0-1.1.09-1.1.37s.27.46.73.46a6.6,6.6,0,0,1,1.66.18c1,.23,1.47,1,1.56,2.58s.09,2.75.09,9.74Z" transform="translate(0.04 -0.05)" style="fill:#426d61"/><path d="M149.59,22.19c0,4.22,0,7.85-.23,9.78-.18,1.33-.41,2.35-1.33,2.53a7.59,7.59,0,0,1-1.65.19c-.55,0-.74.13-.74.36s.33.46.92.46c.92,0,2.12-.09,3.17-.09s2.12-.05,2.62-.05c1.38,0,2.8.05,4.78.14s4.5.14,8,.14c1.74,0,2.15,0,2.48-1.19a37.93,37.93,0,0,0,.59-5.1c0-.47,0-.83-.37-.83s-.41.18-.5.69c-.32,1.88-.88,2.85-2.07,3.4a11.71,11.71,0,0,1-4.32.55c-4.68,0-5.42-.69-5.51-3.86V18.56c0-.28,0-.46.28-.46,1.1,0,5.65,0,6.52.14,1.7.18,2.34.87,2.57,1.79a13.18,13.18,0,0,1,.19,1.66.36.36,0,0,0,.3.41h.11c.41,0,.41-.51.41-.87s.14-2.16.19-3.08c.18-2.35.37-3.08.37-3.36s-.14-.37-.33-.37-.41.23-.73.6a3.19,3.19,0,0,1-2.2.69c-1.06.09-6.35.09-7.36.09-.27,0-.32-.18-.32-.5V3.67c0-.31.09-.45.32-.45.92,0,5.75.09,6.53.18,2.29.27,2.75.83,3.08,1.65a5.25,5.25,0,0,1,.27,1.66c0,.41.09.64.41.64s.41-.27.46-.5c.1-.56.18-2.58.23-3a30,30,0,0,1,.37-3c0-.23,0-.42-.28-.42a3.74,3.74,0,0,0-.73.19,16.86,16.86,0,0,1-2,.27H152.6c-.64,0-1.7,0-2.89-.09s-2.48,0-3.72,0c-.7,0-1,.09-1,.42s.27.41.78.41a9,9,0,0,1,1.79.14c1.52.32,1.88,1,2,2.62s.09,2.75.09,9.74Z" transform="translate(0.04 -0.05)" style="fill:#426d61"/><path d="M180.66,10h.14c.83.87,5.92,6.62,10.93,11.57,4.78,4.74,10.66,10.75,13.56,13.51.5.5,1.05,1,1.55,1s.6-.41.6-1.42l.51-29c0-2.57.41-3.53,1.7-3.9A4.94,4.94,0,0,1,211,1.59c.55,0,.82-.14.82-.41s-.45-.42-1-.42c-2.25,0-4,.14-4.5.14-1,0-3.18-.14-5.57-.14-.68,0-1.19,0-1.19.42s.18.41.74.41a7.66,7.66,0,0,1,2.43.27c1.1.47,1.52,1.34,1.57,4.14l.45,20.62h-.23c-.78-.73-7-7.35-10.1-10.47C187.69,9.47,180.71,2,180.16,1.47c-.79-.82-1.2-1.42-1.7-1.42s-.6.64-.6,1.57l-.41,27.19c0,4-.23,5.33-1.42,5.7a8.48,8.48,0,0,1-2.07.23c-.47,0-.74.08-.74.36s.41.46,1,.46c2.39,0,4.55-.14,5-.14.88,0,2.71.14,5.7.14.64,0,1.06-.09,1.06-.46s-.28-.36-.78-.36a7.16,7.16,0,0,1-2.39-.33c-.92-.32-1.52-1.51-1.61-5.1Z" transform="translate(0.04 -0.05)" style="fill:#426d61"/><path d="M225.7,31.78c5.6-8.53,11.63-17.62,17.11-26.51a1.71,1.71,0,0,0,.31-.75c0-.2-.27-.32-.67-.32H230.34c-1.62,0-3.53,0-7.3-.12a12,12,0,0,1-1.59-.28c-.23,0-.39.2-.47.76-.2,1.19-.8,4.8-.8,5.71,0,.48,0,.68.32.68s.4-.16.48-.72a4.51,4.51,0,0,1,2.14-3.09c1.27-.72,3.69-.84,5.72-.84h7.75c-5.31,8.38-11.19,17.35-16.78,26.08-.48.71-.6.91-.6,1.19s.24.4.68.4c8,0,14.68.19,21.31.19.71,0,1-.31,1.19-1a24.69,24.69,0,0,0,.79-4.84c0-1-.08-1.23-.39-1.23s-.32.24-.4.64a7.64,7.64,0,0,1-.71,1.9c-.64,1.19-2.19,2.18-6.24,2.18Z" transform="translate(0.04 -0.05)" style="fill:#545454"/><path d="M263.25,34.64c10.08,0,16.43-7.18,16.43-16.27s-6.15-14.85-16-14.85c-11.91,0-16.39,8.77-16.39,15.56C247.25,26.11,251.85,34.64,263.25,34.64Zm1.66-2c-7.62,0-12.18-6.55-12.18-14.81,0-9.88,5.2-12.42,9.76-12.42,6.51,0,11.63,5.52,11.63,14.41,0,11.48-6.43,12.84-9.21,12.84Z" transform="translate(0.04 -0.05)" style="fill:#545454"/><path d="M290.15,12h.12c.72.75,5.12,5.71,9.45,10,4.13,4.09,9.21,9.28,11.71,11.67.43.43.91.87,1.34.87s.52-.35.52-1.23l.44-25c0-2.23.36-3.06,1.47-3.38a3.92,3.92,0,0,1,1.18-.12c.48,0,.72-.12.72-.35s-.4-.36-.91-.36c-2,0-3.46.12-3.89.12-.83,0-2.74-.12-4.8-.12-.6,0-1,0-1,.36s.16.35.64.35a6.2,6.2,0,0,1,2.1.24c.95.4,1.31,1.15,1.35,3.58l.4,17.81h-.2c-.67-.63-6-6.34-8.73-9-5.8-5.76-11.83-12.23-12.3-12.74-.68-.72-1-1.23-1.47-1.23s-.52.55-.52,1.35l-.36,23.49c0,3.46-.19,4.61-1.23,4.92a7.1,7.1,0,0,1-1.78.2c-.4,0-.64.08-.64.32s.36.4.88.4c2.06,0,3.92-.12,4.28-.12.76,0,2.34.12,4.93.12.55,0,.91-.08.91-.4s-.24-.32-.68-.32a6.25,6.25,0,0,1-2.06-.28c-.79-.28-1.31-1.31-1.39-4.4Z" transform="translate(0.04 -0.05)" style="fill:#545454"/><path d="M326,22.58c0,3.65,0,6.78-.2,8.45-.16,1.15-.36,2-1.15,2.18a6.27,6.27,0,0,1-1.43.16c-.47,0-.63.12-.63.32s.28.4.79.4c.79,0,1.82-.08,2.74-.08h2.26c1.19,0,2.42,0,4.13.12s3.89.12,6.87.12c1.5,0,1.86,0,2.14-1a29.5,29.5,0,0,0,.51-4.4c0-.4,0-.72-.31-.72s-.36.16-.44.6c-.28,1.62-.75,2.46-1.78,2.94a10.08,10.08,0,0,1-3.74.47c-4,0-4.68-.59-4.76-3.33V19.47c0-.24,0-.4.24-.4.95,0,4.88,0,5.64.12,1.47.16,2,.75,2.22,1.55a9.78,9.78,0,0,1,.16,1.43.31.31,0,0,0,.31.31h.07c.36,0,.36-.44.36-.76s.12-1.86.16-2.66c.16-2,.31-2.66.31-2.9s-.11-.31-.27-.31-.36.19-.64.51a3,3,0,0,1-1.9.6c-.95.08-5.48.08-6.35.08-.24,0-.28-.16-.28-.44v-10c0-.28.08-.4.28-.4.79,0,5,.08,5.63.16,2,.24,2.38.72,2.66,1.43a4.34,4.34,0,0,1,.24,1.43c0,.36.08.56.36.56s.36-.24.39-.44c.09-.48.17-2.22.2-2.62a24.9,24.9,0,0,1,.32-2.58c0-.2,0-.36-.23-.36a3.53,3.53,0,0,0-.64.16,16.74,16.74,0,0,1-1.71.24h-9.92c-.56,0-1.47,0-2.5-.08s-2.15,0-3.21,0c-.6,0-.88.08-.88.36s.24.35.68.35a10,10,0,0,1,1.55.12c1.3.28,1.62.92,1.7,2.26s.08,2.39.08,8.42Z" transform="translate(0.04 -0.05)" style="fill:#545454"/></svg>