<svg xmlns="http://www.w3.org/2000/svg" xmlns:xlink="http://www.w3.org/1999/xlink" width="350" zoomAndPan="magnify" viewBox="0 0 262.5 44.999999" height="60" preserveAspectRatio="xMidYMid meet" version="1.0"><defs><g/></defs><g fill="#545454" fill-opacity="1"><g transform="translate(1.389182, 34.861173)"><g><path d="M 8.835938 -8.539062 C 8.835938 -5.800781 8.835938 -3.453125 8.6875 -2.203125 C 8.597656 -1.339844 8.421875 -0.683594 7.824219 -0.566406 C 7.558594 -0.503906 7.199219 -0.445312 6.753906 -0.445312 C 6.398438 -0.445312 6.277344 -0.355469 6.277344 -0.207031 C 6.277344 0 6.484375 0.0898438 6.871094 0.0898438 C 8.0625 0.0898438 9.9375 0 10.621094 0 C 11.453125 0 13.328125 0.0898438 15.292969 0.0898438 C 15.621094 0.0898438 15.859375 0 15.859375 -0.207031 C 15.859375 -0.355469 15.710938 -0.445312 15.382812 -0.445312 C 14.9375 -0.445312 14.28125 -0.503906 13.863281 -0.566406 C 12.972656 -0.683594 12.792969 -1.339844 12.703125 -2.171875 C 12.554688 -3.453125 12.554688 -5.800781 12.554688 -8.539062 L 12.554688 -20.738281 L 16.304688 -20.648438 C 18.953125 -20.589844 19.757812 -19.757812 19.816406 -18.984375 L 19.84375 -18.65625 C 19.875 -18.207031 19.933594 -18.058594 20.171875 -18.058594 C 20.351562 -18.058594 20.410156 -18.238281 20.441406 -18.535156 C 20.441406 -19.308594 20.53125 -21.363281 20.53125 -21.988281 C 20.53125 -22.433594 20.5 -22.613281 20.292969 -22.613281 C 20.171875 -22.613281 19.933594 -22.554688 19.488281 -22.464844 C 19.042969 -22.402344 18.386719 -22.316406 17.433594 -22.316406 L 5.652344 -22.316406 C 4.671875 -22.316406 3.539062 -22.375 2.679688 -22.464844 C 1.933594 -22.523438 1.636719 -22.820312 1.398438 -22.820312 C 1.21875 -22.820312 1.128906 -22.640625 1.042969 -22.253906 C 0.980469 -22.015625 0.417969 -19.308594 0.417969 -18.832031 C 0.417969 -18.507812 0.476562 -18.359375 0.683594 -18.359375 C 0.863281 -18.359375 0.953125 -18.476562 1.011719 -18.714844 C 1.070312 -18.953125 1.21875 -19.308594 1.515625 -19.757812 C 1.964844 -20.410156 2.679688 -20.558594 4.402344 -20.617188 L 8.835938 -20.738281 Z M 8.835938 -8.539062 "/></g></g></g><g fill="#545454" fill-opacity="1"><g transform="translate(22.510958, 34.861173)"><g><path d="M 8.777344 -12.941406 C 8.6875 -12.941406 8.597656 -13.003906 8.597656 -13.152344 L 8.597656 -13.777344 C 8.597656 -18.296875 8.597656 -19.132812 8.65625 -20.082031 C 8.71875 -21.125 8.957031 -21.628906 9.757812 -21.777344 C 10.117188 -21.839844 10.382812 -21.867188 10.621094 -21.867188 C 10.980469 -21.867188 11.15625 -21.929688 11.15625 -22.136719 C 11.15625 -22.34375 10.949219 -22.402344 10.53125 -22.402344 C 9.371094 -22.402344 7.496094 -22.316406 6.785156 -22.316406 C 5.980469 -22.316406 4.105469 -22.402344 2.5 -22.402344 C 2.082031 -22.402344 1.875 -22.34375 1.875 -22.136719 C 1.875 -21.929688 2.054688 -21.867188 2.378906 -21.867188 C 2.796875 -21.867188 3.300781 -21.839844 3.539062 -21.777344 C 4.523438 -21.570312 4.761719 -21.09375 4.820312 -20.082031 C 4.878906 -19.132812 4.878906 -18.296875 4.878906 -13.777344 L 4.878906 -8.539062 C 4.878906 -5.800781 4.878906 -3.453125 4.730469 -2.203125 C 4.613281 -1.339844 4.464844 -0.683594 3.867188 -0.566406 C 3.601562 -0.503906 3.242188 -0.445312 2.796875 -0.445312 C 2.441406 -0.445312 2.320312 -0.355469 2.320312 -0.207031 C 2.320312 0 2.527344 0.0898438 2.914062 0.0898438 C 4.105469 0.0898438 5.980469 0 6.664062 0 C 7.496094 0 9.371094 0.0898438 11.304688 0.0898438 C 11.664062 0.0898438 11.902344 0 11.902344 -0.207031 C 11.902344 -0.355469 11.753906 -0.445312 11.425781 -0.445312 C 10.980469 -0.445312 10.324219 -0.503906 9.90625 -0.566406 C 9.015625 -0.683594 8.835938 -1.339844 8.746094 -2.171875 C 8.597656 -3.453125 8.597656 -5.800781 8.597656 -8.539062 L 8.597656 -11.15625 C 8.597656 -11.304688 8.6875 -11.335938 8.777344 -11.335938 L 20.144531 -11.335938 C 20.230469 -11.335938 20.320312 -11.277344 20.320312 -11.15625 L 20.320312 -8.539062 C 20.320312 -5.800781 20.320312 -3.453125 20.171875 -2.203125 C 20.054688 -1.339844 19.90625 -0.683594 19.308594 -0.566406 C 19.042969 -0.503906 18.683594 -0.445312 18.238281 -0.445312 C 17.882812 -0.445312 17.761719 -0.355469 17.761719 -0.207031 C 17.761719 0 17.972656 0.0898438 18.386719 0.0898438 C 19.546875 0.0898438 21.421875 0 22.105469 0 C 22.941406 0 24.8125 0.0898438 26.746094 0.0898438 C 27.105469 0.0898438 27.34375 0 27.34375 -0.207031 C 27.34375 -0.355469 27.195312 -0.445312 26.867188 -0.445312 C 26.421875 -0.445312 25.765625 -0.503906 25.347656 -0.566406 C 24.457031 -0.683594 24.277344 -1.339844 24.1875 -2.171875 C 24.039062 -3.453125 24.039062 -5.800781 24.039062 -8.539062 L 24.039062 -13.777344 C 24.039062 -18.296875 24.039062 -19.132812 24.101562 -20.082031 C 24.160156 -21.125 24.398438 -21.628906 25.199219 -21.777344 C 25.558594 -21.839844 25.824219 -21.867188 26.0625 -21.867188 C 26.421875 -21.867188 26.597656 -21.929688 26.597656 -22.136719 C 26.597656 -22.34375 26.390625 -22.402344 25.972656 -22.402344 C 24.8125 -22.402344 22.941406 -22.316406 22.226562 -22.316406 C 21.421875 -22.316406 19.546875 -22.402344 17.941406 -22.402344 C 17.523438 -22.402344 17.316406 -22.34375 17.316406 -22.136719 C 17.316406 -21.929688 17.496094 -21.867188 17.820312 -21.867188 C 18.238281 -21.867188 18.746094 -21.839844 18.984375 -21.777344 C 19.964844 -21.570312 20.203125 -21.09375 20.261719 -20.082031 C 20.320312 -19.132812 20.320312 -18.296875 20.320312 -13.777344 L 20.320312 -13.152344 C 20.320312 -13.003906 20.230469 -12.941406 20.144531 -12.941406 Z M 8.777344 -12.941406 "/></g></g></g><g fill="#545454" fill-opacity="1"><g transform="translate(51.426966, 34.861173)"><g><path d="M 4.878906 -8.539062 C 4.878906 -5.800781 4.878906 -3.453125 4.730469 -2.203125 C 4.613281 -1.339844 4.464844 -0.683594 3.867188 -0.566406 C 3.601562 -0.503906 3.242188 -0.445312 2.796875 -0.445312 C 2.441406 -0.445312 2.320312 -0.355469 2.320312 -0.207031 C 2.320312 0 2.527344 0.0898438 2.914062 0.0898438 C 3.511719 0.0898438 4.285156 0.03125 4.96875 0.03125 C 5.683594 0 6.335938 0 6.664062 0 C 7.558594 0 8.480469 0.03125 9.757812 0.0898438 C 11.039062 0.117188 12.675781 0.179688 14.90625 0.179688 C 16.035156 0.179688 16.304688 0.179688 16.511719 -0.59375 C 16.660156 -1.191406 16.898438 -3.214844 16.898438 -3.898438 C 16.898438 -4.195312 16.898438 -4.433594 16.660156 -4.433594 C 16.453125 -4.433594 16.394531 -4.3125 16.335938 -3.988281 C 16.125 -2.765625 15.769531 -2.140625 14.996094 -1.785156 C 14.222656 -1.429688 12.972656 -1.429688 12.199219 -1.429688 C 9.164062 -1.429688 8.6875 -1.875 8.628906 -3.925781 C 8.597656 -4.789062 8.628906 -7.527344 8.628906 -8.539062 L 8.628906 -10.890625 C 8.628906 -11.066406 8.65625 -11.1875 8.808594 -11.1875 C 9.519531 -11.1875 12.464844 -11.15625 13.03125 -11.097656 C 14.132812 -10.980469 14.550781 -10.53125 14.699219 -9.9375 C 14.789062 -9.550781 14.789062 -9.164062 14.816406 -8.867188 C 14.816406 -8.71875 14.875 -8.597656 15.085938 -8.597656 C 15.351562 -8.597656 15.351562 -8.925781 15.351562 -9.164062 C 15.351562 -9.371094 15.441406 -10.5625 15.472656 -11.15625 C 15.589844 -12.675781 15.710938 -13.152344 15.710938 -13.328125 C 15.710938 -13.507812 15.621094 -13.566406 15.5 -13.566406 C 15.351562 -13.566406 15.234375 -13.417969 15.023438 -13.179688 C 14.757812 -12.882812 14.3125 -12.792969 13.597656 -12.734375 C 12.914062 -12.675781 9.492188 -12.675781 8.835938 -12.675781 C 8.65625 -12.675781 8.628906 -12.792969 8.628906 -13.003906 L 8.628906 -20.53125 C 8.628906 -20.738281 8.6875 -20.828125 8.835938 -20.828125 C 9.433594 -20.828125 12.554688 -20.769531 13.0625 -20.707031 C 14.550781 -20.53125 14.847656 -20.171875 15.054688 -19.636719 C 15.203125 -19.28125 15.234375 -18.773438 15.234375 -18.566406 C 15.234375 -18.296875 15.292969 -18.148438 15.5 -18.148438 C 15.710938 -18.148438 15.769531 -18.328125 15.800781 -18.476562 C 15.859375 -18.832031 15.917969 -20.144531 15.949219 -20.441406 C 16.035156 -21.808594 16.1875 -22.167969 16.1875 -22.375 C 16.1875 -22.523438 16.15625 -22.640625 16.007812 -22.640625 C 15.859375 -22.640625 15.679688 -22.554688 15.53125 -22.523438 C 15.292969 -22.464844 14.816406 -22.402344 14.25 -22.34375 C 13.6875 -22.316406 7.765625 -22.316406 6.8125 -22.316406 C 6.398438 -22.316406 5.710938 -22.34375 4.9375 -22.375 C 4.195312 -22.375 3.332031 -22.402344 2.527344 -22.402344 C 2.082031 -22.402344 1.875 -22.34375 1.875 -22.136719 C 1.875 -21.929688 2.054688 -21.867188 2.378906 -21.867188 C 2.796875 -21.867188 3.300781 -21.839844 3.539062 -21.777344 C 4.523438 -21.570312 4.761719 -21.09375 4.820312 -20.082031 C 4.878906 -19.132812 4.878906 -18.296875 4.878906 -13.777344 Z M 4.878906 -8.539062 "/></g></g></g><g fill="#00653b" fill-opacity="1"><g transform="translate(71.915625, 35.926898)"><g><path d="M 9.957031 -15.949219 C 9.957031 -21.1875 9.957031 -22.152344 10.027344 -23.253906 C 10.09375 -24.460938 10.371094 -25.046875 11.300781 -25.21875 C 11.714844 -25.289062 12.265625 -25.320312 12.644531 -25.320312 C 13.058594 -25.320312 13.265625 -25.390625 13.265625 -25.632812 C 13.265625 -25.875 13.023438 -25.941406 12.539062 -25.941406 C 11.195312 -25.941406 8.683594 -25.839844 7.855469 -25.839844 C 6.925781 -25.839844 4.753906 -25.941406 3.136719 -25.941406 C 2.617188 -25.941406 2.378906 -25.875 2.378906 -25.632812 C 2.378906 -25.390625 2.582031 -25.320312 2.960938 -25.320312 C 3.410156 -25.320312 3.824219 -25.289062 4.101562 -25.21875 C 5.238281 -24.976562 5.511719 -24.425781 5.582031 -23.253906 C 5.648438 -22.152344 5.648438 -21.1875 5.648438 -15.949219 L 5.648438 -9.886719 C 5.648438 -6.71875 5.648438 -3.996094 5.476562 -2.550781 C 5.339844 -1.550781 5.167969 -0.792969 4.480469 -0.65625 C 4.167969 -0.585938 3.753906 -0.515625 3.238281 -0.515625 C 2.824219 -0.515625 2.6875 -0.414062 2.6875 -0.242188 C 2.6875 0 2.929688 0.101562 3.375 0.101562 C 4.066406 0.101562 4.960938 0.0351562 5.753906 0.0351562 C 6.582031 0 7.339844 0 7.71875 0 C 9.128906 0 10.371094 0.0351562 11.921875 0.101562 C 13.46875 0.136719 15.261719 0.207031 17.742188 0.207031 C 19.535156 0.207031 19.707031 0.0351562 19.914062 -0.722656 C 20.1875 -1.722656 20.429688 -4.304688 20.429688 -4.683594 C 20.429688 -5.097656 20.394531 -5.269531 20.152344 -5.269531 C 19.878906 -5.269531 19.808594 -5.0625 19.773438 -4.753906 C 19.707031 -4.101562 19.292969 -3.136719 18.878906 -2.6875 C 18.019531 -1.757812 16.675781 -1.722656 14.847656 -1.722656 C 12.160156 -1.722656 11.265625 -1.964844 10.679688 -2.480469 C 9.957031 -3.101562 9.957031 -5.476562 9.957031 -9.886719 Z M 9.957031 -15.949219 "/></g></g></g><g fill="#00653b" fill-opacity="1"><g transform="translate(92.758657, 35.926898)"><g><path d="M 5.648438 -9.886719 C 5.648438 -6.546875 5.648438 -3.824219 5.476562 -2.378906 C 5.375 -1.378906 5.167969 -0.792969 4.480469 -0.65625 C 4.167969 -0.585938 3.753906 -0.515625 3.238281 -0.515625 C 2.824219 -0.515625 2.6875 -0.414062 2.6875 -0.242188 C 2.6875 0 2.929688 0.101562 3.375 0.101562 C 4.753906 0.101562 6.925781 0 7.71875 0 C 8.648438 0 10.816406 0.101562 13.089844 0.101562 C 13.46875 0.101562 13.746094 0 13.746094 -0.242188 C 13.746094 -0.414062 13.574219 -0.515625 13.195312 -0.515625 C 12.679688 -0.515625 11.921875 -0.585938 11.4375 -0.65625 C 10.40625 -0.792969 10.164062 -1.414062 10.058594 -2.34375 C 9.921875 -3.824219 9.921875 -6.546875 9.921875 -9.886719 L 9.921875 -15.949219 C 9.921875 -21.1875 9.921875 -22.152344 9.992188 -23.253906 C 10.058594 -24.460938 10.335938 -25.046875 11.265625 -25.21875 C 11.679688 -25.289062 11.953125 -25.320312 12.300781 -25.320312 C 12.644531 -25.320312 12.851562 -25.390625 12.851562 -25.667969 C 12.851562 -25.875 12.574219 -25.941406 12.128906 -25.941406 C 10.816406 -25.941406 8.785156 -25.839844 7.925781 -25.839844 C 6.925781 -25.839844 4.753906 -25.941406 3.445312 -25.941406 C 2.894531 -25.941406 2.617188 -25.875 2.617188 -25.667969 C 2.617188 -25.390625 2.824219 -25.320312 3.167969 -25.320312 C 3.582031 -25.320312 4.03125 -25.289062 4.410156 -25.183594 C 5.167969 -25.011719 5.511719 -24.425781 5.582031 -23.253906 C 5.648438 -22.152344 5.648438 -21.1875 5.648438 -15.949219 Z M 5.648438 -9.886719 "/></g></g></g><g fill="#00653b" fill-opacity="1"><g transform="translate(108.33064, 35.926898)"><g><path d="M 5.648438 -9.886719 C 5.648438 -6.71875 5.648438 -3.996094 5.476562 -2.550781 C 5.339844 -1.550781 5.167969 -0.792969 4.480469 -0.65625 C 4.167969 -0.585938 3.753906 -0.515625 3.238281 -0.515625 C 2.824219 -0.515625 2.6875 -0.414062 2.6875 -0.242188 C 2.6875 0 2.929688 0.101562 3.375 0.101562 C 4.066406 0.101562 4.960938 0.0351562 5.753906 0.0351562 C 6.582031 0 7.339844 0 7.71875 0 C 8.75 0 9.820312 0.0351562 11.300781 0.101562 C 12.78125 0.136719 14.675781 0.207031 17.261719 0.207031 C 18.570312 0.207031 18.878906 0.207031 19.121094 -0.6875 C 19.292969 -1.378906 19.570312 -3.722656 19.570312 -4.511719 C 19.570312 -4.859375 19.570312 -5.132812 19.292969 -5.132812 C 19.050781 -5.132812 18.984375 -4.996094 18.914062 -4.617188 C 18.671875 -3.203125 18.257812 -2.480469 17.363281 -2.066406 C 16.46875 -1.652344 15.019531 -1.652344 14.125 -1.652344 C 10.609375 -1.652344 10.058594 -2.171875 9.992188 -4.546875 C 9.957031 -5.546875 9.992188 -8.714844 9.992188 -9.886719 L 9.992188 -12.609375 C 9.992188 -12.816406 10.027344 -12.953125 10.199219 -12.953125 C 11.023438 -12.953125 14.433594 -12.917969 15.089844 -12.851562 C 16.363281 -12.710938 16.847656 -12.195312 17.019531 -11.507812 C 17.121094 -11.058594 17.121094 -10.609375 17.15625 -10.265625 C 17.15625 -10.09375 17.226562 -9.957031 17.46875 -9.957031 C 17.777344 -9.957031 17.777344 -10.335938 17.777344 -10.609375 C 17.777344 -10.851562 17.878906 -12.230469 17.914062 -12.917969 C 18.050781 -14.675781 18.191406 -15.226562 18.191406 -15.433594 C 18.191406 -15.640625 18.085938 -15.710938 17.949219 -15.710938 C 17.777344 -15.710938 17.640625 -15.539062 17.398438 -15.261719 C 17.089844 -14.917969 16.570312 -14.8125 15.746094 -14.746094 C 14.953125 -14.675781 10.988281 -14.675781 10.230469 -14.675781 C 10.027344 -14.675781 9.992188 -14.8125 9.992188 -15.054688 L 9.992188 -23.773438 C 9.992188 -24.011719 10.058594 -24.117188 10.230469 -24.117188 C 10.921875 -24.117188 14.539062 -24.046875 15.125 -23.976562 C 16.847656 -23.773438 17.191406 -23.359375 17.433594 -22.738281 C 17.605469 -22.324219 17.640625 -21.738281 17.640625 -21.496094 C 17.640625 -21.1875 17.707031 -21.015625 17.949219 -21.015625 C 18.191406 -21.015625 18.257812 -21.222656 18.292969 -21.394531 C 18.363281 -21.808594 18.429688 -23.324219 18.464844 -23.667969 C 18.570312 -25.253906 18.742188 -25.667969 18.742188 -25.90625 C 18.742188 -26.078125 18.707031 -26.21875 18.535156 -26.21875 C 18.363281 -26.21875 18.15625 -26.113281 17.984375 -26.078125 C 17.707031 -26.011719 17.15625 -25.941406 16.503906 -25.875 C 15.847656 -25.839844 8.992188 -25.839844 7.890625 -25.839844 C 7.40625 -25.839844 6.613281 -25.875 5.71875 -25.90625 C 4.859375 -25.90625 3.859375 -25.941406 2.929688 -25.941406 C 2.410156 -25.941406 2.171875 -25.875 2.171875 -25.632812 C 2.171875 -25.390625 2.378906 -25.320312 2.757812 -25.320312 C 3.238281 -25.320312 3.824219 -25.289062 4.101562 -25.21875 C 5.238281 -24.976562 5.511719 -24.425781 5.582031 -23.253906 C 5.648438 -22.152344 5.648438 -21.1875 5.648438 -15.949219 Z M 5.648438 -9.886719 "/></g></g></g><g fill="#00653b" fill-opacity="1"><g transform="translate(130.103855, 35.926898)"><g><path d="M 7.199219 -19.050781 L 7.304688 -19.050781 C 7.925781 -18.398438 11.746094 -14.089844 15.503906 -10.371094 C 19.085938 -6.820312 23.496094 -2.308594 25.667969 -0.242188 C 26.046875 0.136719 26.457031 0.515625 26.835938 0.515625 C 27.148438 0.515625 27.285156 0.207031 27.285156 -0.550781 L 27.664062 -22.289062 C 27.699219 -24.21875 27.976562 -24.941406 28.9375 -25.21875 C 29.351562 -25.320312 29.628906 -25.320312 29.972656 -25.320312 C 30.386719 -25.320312 30.59375 -25.425781 30.59375 -25.632812 C 30.59375 -25.90625 30.25 -25.941406 29.800781 -25.941406 C 28.113281 -25.941406 26.804688 -25.839844 26.425781 -25.839844 C 25.699219 -25.839844 24.046875 -25.941406 22.253906 -25.941406 C 21.738281 -25.941406 21.359375 -25.90625 21.359375 -25.632812 C 21.359375 -25.425781 21.496094 -25.320312 21.910156 -25.320312 C 22.394531 -25.320312 23.21875 -25.320312 23.738281 -25.117188 C 24.5625 -24.769531 24.875 -24.117188 24.910156 -22.015625 L 25.253906 -6.546875 L 25.082031 -6.546875 C 24.496094 -7.097656 19.84375 -12.058594 17.5 -14.402344 C 12.472656 -19.394531 7.234375 -25.011719 6.820312 -25.460938 C 6.234375 -26.078125 5.925781 -26.527344 5.546875 -26.527344 C 5.203125 -26.527344 5.097656 -26.046875 5.097656 -25.355469 L 4.789062 -4.960938 C 4.753906 -1.964844 4.617188 -0.964844 3.722656 -0.6875 C 3.238281 -0.550781 2.617188 -0.515625 2.171875 -0.515625 C 1.824219 -0.515625 1.621094 -0.449219 1.621094 -0.242188 C 1.621094 0.0703125 1.929688 0.101562 2.378906 0.101562 C 4.167969 0.101562 5.789062 0 6.097656 0 C 6.753906 0 8.128906 0.101562 10.371094 0.101562 C 10.851562 0.101562 11.164062 0.0351562 11.164062 -0.242188 C 11.164062 -0.449219 10.957031 -0.515625 10.578125 -0.515625 C 10.027344 -0.515625 9.371094 -0.550781 8.785156 -0.757812 C 8.097656 -1 7.648438 -1.894531 7.578125 -4.582031 Z M 7.199219 -19.050781 "/></g></g></g><g fill="#545454" fill-opacity="1"><g transform="translate(164.475329, 34.871937)"><g><path d="M 6.609375 -1.636719 C 10.804688 -8.035156 15.328125 -14.851562 19.4375 -21.519531 C 19.554688 -21.730469 19.675781 -21.90625 19.675781 -22.085938 C 19.675781 -22.234375 19.46875 -22.324219 19.167969 -22.324219 L 10.089844 -22.324219 C 8.871094 -22.324219 7.441406 -22.292969 4.613281 -22.414062 C 3.871094 -22.445312 3.691406 -22.621094 3.421875 -22.621094 C 3.246094 -22.621094 3.125 -22.472656 3.066406 -22.054688 C 2.917969 -21.164062 2.46875 -18.453125 2.46875 -17.769531 C 2.46875 -17.414062 2.5 -17.265625 2.707031 -17.265625 C 2.886719 -17.265625 3.007812 -17.382812 3.066406 -17.800781 C 3.15625 -18.484375 3.691406 -19.585938 4.671875 -20.121094 C 5.625 -20.65625 7.441406 -20.746094 8.960938 -20.746094 L 14.792969 -20.746094 C 10.804688 -14.464844 6.398438 -7.738281 2.203125 -1.191406 C 1.84375 -0.65625 1.757812 -0.507812 1.757812 -0.296875 C 1.757812 -0.0898438 1.933594 0 2.261719 0 C 8.273438 0 13.277344 0.148438 18.246094 0.148438 C 18.78125 0.148438 18.992188 -0.0898438 19.140625 -0.625 C 19.347656 -1.371094 19.734375 -3.304688 19.734375 -4.257812 C 19.734375 -4.972656 19.675781 -5.179688 19.4375 -5.179688 C 19.257812 -5.179688 19.199219 -5 19.140625 -4.703125 C 19.050781 -4.285156 18.871094 -3.75 18.605469 -3.273438 C 18.128906 -2.382812 16.964844 -1.636719 13.929688 -1.636719 Z M 6.609375 -1.636719 "/></g></g></g><g fill="#545454" fill-opacity="1"><g transform="translate(185.608612, 34.871937)"><g><path d="M 13.632812 0.507812 C 21.195312 0.507812 25.957031 -4.882812 25.957031 -11.699219 C 25.957031 -18.515625 21.34375 -22.832031 13.929688 -22.832031 C 5 -22.832031 1.636719 -16.253906 1.636719 -11.164062 C 1.636719 -5.894531 5.089844 0.507812 13.632812 0.507812 Z M 14.882812 -0.980469 C 9.167969 -0.980469 5.746094 -5.894531 5.746094 -12.085938 C 5.746094 -19.496094 9.644531 -21.402344 13.066406 -21.402344 C 17.949219 -21.402344 21.789062 -17.265625 21.789062 -10.597656 C 21.789062 -1.996094 16.964844 -0.980469 14.882812 -0.980469 Z M 14.882812 -0.980469 "/></g></g></g><g fill="#545454" fill-opacity="1"><g transform="translate(213.200939, 34.871937)"><g><path d="M 6.222656 -16.460938 L 6.308594 -16.460938 C 6.847656 -15.894531 10.148438 -12.175781 13.394531 -8.960938 C 16.492188 -5.894531 20.300781 -1.996094 22.175781 -0.207031 C 22.503906 0.117188 22.859375 0.445312 23.1875 0.445312 C 23.457031 0.445312 23.574219 0.179688 23.574219 -0.476562 L 23.902344 -19.257812 C 23.933594 -20.925781 24.171875 -21.550781 25.003906 -21.789062 C 25.359375 -21.878906 25.597656 -21.878906 25.894531 -21.878906 C 26.253906 -21.878906 26.433594 -21.96875 26.433594 -22.144531 C 26.433594 -22.382812 26.132812 -22.414062 25.746094 -22.414062 C 24.289062 -22.414062 23.15625 -22.324219 22.832031 -22.324219 C 22.207031 -22.324219 20.777344 -22.414062 19.230469 -22.414062 C 18.78125 -22.414062 18.453125 -22.382812 18.453125 -22.144531 C 18.453125 -21.96875 18.574219 -21.878906 18.929688 -21.878906 C 19.347656 -21.878906 20.0625 -21.878906 20.507812 -21.699219 C 21.222656 -21.402344 21.492188 -20.835938 21.519531 -19.019531 L 21.820312 -5.65625 L 21.667969 -5.65625 C 21.164062 -6.132812 17.144531 -10.417969 15.121094 -12.441406 C 10.773438 -16.757812 6.25 -21.609375 5.894531 -21.996094 C 5.386719 -22.53125 5.121094 -22.917969 4.792969 -22.917969 C 4.496094 -22.917969 4.40625 -22.503906 4.40625 -21.90625 L 4.136719 -4.285156 C 4.109375 -1.695312 3.988281 -0.832031 3.214844 -0.59375 C 2.796875 -0.476562 2.261719 -0.445312 1.875 -0.445312 C 1.578125 -0.445312 1.398438 -0.386719 1.398438 -0.207031 C 1.398438 0.0585938 1.667969 0.0898438 2.054688 0.0898438 C 3.601562 0.0898438 5 0 5.269531 0 C 5.835938 0 7.023438 0.0898438 8.960938 0.0898438 C 9.375 0.0898438 9.644531 0.03125 9.644531 -0.207031 C 9.644531 -0.386719 9.464844 -0.445312 9.136719 -0.445312 C 8.660156 -0.445312 8.097656 -0.476562 7.589844 -0.65625 C 6.996094 -0.863281 6.609375 -1.636719 6.546875 -3.957031 Z M 6.222656 -16.460938 "/></g></g></g><g fill="#545454" fill-opacity="1"><g transform="translate(241.388572, 34.871937)"><g><path d="M 4.882812 -8.542969 C 4.882812 -5.804688 4.882812 -3.453125 4.734375 -2.203125 C 4.613281 -1.339844 4.464844 -0.683594 3.871094 -0.566406 C 3.601562 -0.507812 3.246094 -0.445312 2.796875 -0.445312 C 2.441406 -0.445312 2.320312 -0.355469 2.320312 -0.207031 C 2.320312 0 2.53125 0.0898438 2.917969 0.0898438 C 3.511719 0.0898438 4.285156 0.03125 4.972656 0.03125 C 5.683594 0 6.339844 0 6.667969 0 C 7.5625 0 8.484375 0.03125 9.761719 0.0898438 C 11.042969 0.117188 12.679688 0.179688 14.914062 0.179688 C 16.042969 0.179688 16.3125 0.179688 16.519531 -0.59375 C 16.667969 -1.191406 16.90625 -3.214844 16.90625 -3.898438 C 16.90625 -4.195312 16.90625 -4.433594 16.667969 -4.433594 C 16.460938 -4.433594 16.402344 -4.316406 16.339844 -3.988281 C 16.132812 -2.769531 15.777344 -2.144531 15.003906 -1.785156 C 14.226562 -1.429688 12.976562 -1.429688 12.203125 -1.429688 C 9.167969 -1.429688 8.691406 -1.875 8.632812 -3.929688 C 8.601562 -4.792969 8.632812 -7.53125 8.632812 -8.542969 L 8.632812 -10.894531 C 8.632812 -11.074219 8.660156 -11.191406 8.8125 -11.191406 C 9.523438 -11.191406 12.472656 -11.164062 13.039062 -11.101562 C 14.140625 -10.984375 14.554688 -10.539062 14.703125 -9.941406 C 14.792969 -9.554688 14.792969 -9.167969 14.824219 -8.871094 C 14.824219 -8.722656 14.882812 -8.601562 15.089844 -8.601562 C 15.359375 -8.601562 15.359375 -8.929688 15.359375 -9.167969 C 15.359375 -9.375 15.449219 -10.566406 15.476562 -11.164062 C 15.597656 -12.679688 15.714844 -13.15625 15.714844 -13.335938 C 15.714844 -13.515625 15.628906 -13.574219 15.507812 -13.574219 C 15.359375 -13.574219 15.238281 -13.425781 15.03125 -13.1875 C 14.765625 -12.886719 14.316406 -12.800781 13.601562 -12.738281 C 12.917969 -12.679688 9.496094 -12.679688 8.839844 -12.679688 C 8.660156 -12.679688 8.632812 -12.800781 8.632812 -13.007812 L 8.632812 -20.539062 C 8.632812 -20.746094 8.691406 -20.835938 8.839844 -20.835938 C 9.4375 -20.835938 12.5625 -20.777344 13.066406 -20.71875 C 14.554688 -20.539062 14.851562 -20.179688 15.0625 -19.644531 C 15.210938 -19.289062 15.238281 -18.78125 15.238281 -18.574219 C 15.238281 -18.304688 15.300781 -18.15625 15.507812 -18.15625 C 15.714844 -18.15625 15.777344 -18.335938 15.804688 -18.484375 C 15.867188 -18.84375 15.925781 -20.152344 15.953125 -20.449219 C 16.042969 -21.820312 16.191406 -22.175781 16.191406 -22.382812 C 16.191406 -22.53125 16.164062 -22.652344 16.015625 -22.652344 C 15.867188 -22.652344 15.6875 -22.5625 15.539062 -22.53125 C 15.300781 -22.472656 14.824219 -22.414062 14.257812 -22.355469 C 13.691406 -22.324219 7.769531 -22.324219 6.816406 -22.324219 C 6.398438 -22.324219 5.714844 -22.355469 4.941406 -22.382812 C 4.195312 -22.382812 3.332031 -22.414062 2.53125 -22.414062 C 2.082031 -22.414062 1.875 -22.355469 1.875 -22.144531 C 1.875 -21.9375 2.054688 -21.878906 2.382812 -21.878906 C 2.796875 -21.878906 3.304688 -21.847656 3.542969 -21.789062 C 4.523438 -21.582031 4.761719 -21.105469 4.820312 -20.09375 C 4.882812 -19.140625 4.882812 -18.304688 4.882812 -13.78125 Z M 4.882812 -8.542969 "/></g></g></g></svg>